<svg width="170" height="20" viewBox="0 0 170 20" fill="none" xmlns="http://www.w3.org/2000/svg">
<path d="M5.6 10.864H3.04V16H1.888V4.8H3.04V9.824H5.6L9.392 4.8H10.672L6.512 10.24L10.912 16H9.552L5.6 10.864ZM15.4964 7.52C16.595 7.52 17.4377 7.79733 18.0244 8.352C18.611 8.896 18.9044 9.70667 18.9044 10.784V16H17.8164V14.688C17.5604 15.1253 17.1817 15.4667 16.6804 15.712C16.1897 15.9573 15.603 16.08 14.9204 16.08C13.9817 16.08 13.235 15.856 12.6804 15.408C12.1257 14.96 11.8484 14.368 11.8484 13.632C11.8484 12.9173 12.1044 12.3413 12.6164 11.904C13.139 11.4667 13.9657 11.248 15.0964 11.248H17.7684V10.736C17.7684 10.0107 17.5657 9.46133 17.1604 9.088C16.755 8.704 16.163 8.512 15.3844 8.512C14.851 8.512 14.339 8.60267 13.8484 8.784C13.3577 8.95467 12.9364 9.19467 12.5844 9.504L12.0724 8.656C12.499 8.29333 13.011 8.016 13.6084 7.824C14.2057 7.62133 14.835 7.52 15.4964 7.52ZM15.0964 15.184C15.7364 15.184 16.2857 15.04 16.7444 14.752C17.203 14.4533 17.5444 14.0267 17.7684 13.472V12.096H15.1284C13.6884 12.096 12.9684 12.5973 12.9684 13.6C12.9684 14.0907 13.155 14.48 13.5284 14.768C13.9017 15.0453 14.4244 15.184 15.0964 15.184ZM27.8485 8.592H24.6645V16H23.5285V8.592H20.3445V7.584H27.8485V8.592ZM32.387 7.52C33.4857 7.52 34.3283 7.79733 34.915 8.352C35.5017 8.896 35.795 9.70667 35.795 10.784V16H34.707V14.688C34.451 15.1253 34.0723 15.4667 33.571 15.712C33.0803 15.9573 32.4937 16.08 31.811 16.08C30.8723 16.08 30.1257 15.856 29.571 15.408C29.0163 14.96 28.739 14.368 28.739 13.632C28.739 12.9173 28.995 12.3413 29.507 11.904C30.0297 11.4667 30.8563 11.248 31.987 11.248H34.659V10.736C34.659 10.0107 34.4563 9.46133 34.051 9.088C33.6457 8.704 33.0537 8.512 32.275 8.512C31.7417 8.512 31.2297 8.60267 30.739 8.784C30.2483 8.95467 29.827 9.19467 29.475 9.504L28.963 8.656C29.3897 8.29333 29.9017 8.016 30.499 7.824C31.0963 7.62133 31.7257 7.52 32.387 7.52ZM31.987 15.184C32.627 15.184 33.1763 15.04 33.635 14.752C34.0937 14.4533 34.435 14.0267 34.659 13.472V12.096H32.019C30.579 12.096 29.859 12.5973 29.859 13.6C29.859 14.0907 30.0457 14.48 30.419 14.768C30.7923 15.0453 31.315 15.184 31.987 15.184ZM45.6991 7.584V16H44.5631V8.592H40.5311L40.4191 10.672C40.3338 12.4213 40.1311 13.7653 39.8111 14.704C39.4911 15.6427 38.9205 16.112 38.0991 16.112C37.8751 16.112 37.6031 16.0693 37.2831 15.984L37.3631 15.008C37.5551 15.0507 37.6885 15.072 37.7631 15.072C38.2005 15.072 38.5311 14.8693 38.7551 14.464C38.9791 14.0587 39.1285 13.5573 39.2031 12.96C39.2778 12.3627 39.3418 11.5733 39.3951 10.592L39.5391 7.584H45.6991ZM52.4005 16.08C51.5898 16.08 50.8592 15.8987 50.2085 15.536C49.5578 15.1627 49.0458 14.6507 48.6725 14C48.2992 13.3493 48.1125 12.6133 48.1125 11.792C48.1125 10.9707 48.2992 10.2347 48.6725 9.584C49.0458 8.93333 49.5578 8.42667 50.2085 8.064C50.8592 7.70133 51.5898 7.52 52.4005 7.52C53.2112 7.52 53.9418 7.70133 54.5925 8.064C55.2432 8.42667 55.7498 8.93333 56.1125 9.584C56.4858 10.2347 56.6725 10.9707 56.6725 11.792C56.6725 12.6133 56.4858 13.3493 56.1125 14C55.7498 14.6507 55.2432 15.1627 54.5925 15.536C53.9418 15.8987 53.2112 16.08 52.4005 16.08ZM52.4005 15.072C52.9978 15.072 53.5312 14.9387 54.0005 14.672C54.4805 14.3947 54.8538 14.0053 55.1205 13.504C55.3872 13.0027 55.5205 12.432 55.5205 11.792C55.5205 11.152 55.3872 10.5813 55.1205 10.08C54.8538 9.57867 54.4805 9.19467 54.0005 8.928C53.5312 8.65067 52.9978 8.512 52.4005 8.512C51.8032 8.512 51.2645 8.65067 50.7845 8.928C50.3152 9.19467 49.9418 9.57867 49.6645 10.08C49.3978 10.5813 49.2645 11.152 49.2645 11.792C49.2645 12.432 49.3978 13.0027 49.6645 13.504C49.9418 14.0053 50.3152 14.3947 50.7845 14.672C51.2645 14.9387 51.8032 15.072 52.4005 15.072ZM65.0524 8.592H60.2364V16H59.1004V7.584H65.0524V8.592Z" fill="white"/>
<path d="M107.552 16L103.248 10.416L104.208 9.84L108.912 16H107.552ZM99.888 16V4.8H101.04V16H99.888ZM100.688 10.864V9.824H104.192V10.864H100.688ZM104.304 10.528L103.216 10.336L107.392 4.8H108.672L104.304 10.528ZM113.822 16.08C113.011 16.08 112.281 15.8987 111.63 15.536C110.99 15.1627 110.483 14.656 110.11 14.016C109.737 13.3653 109.55 12.624 109.55 11.792C109.55 10.9493 109.737 10.208 110.11 9.568C110.483 8.928 110.99 8.42667 111.63 8.064C112.27 7.70133 113.001 7.52 113.822 7.52C114.654 7.52 115.39 7.70133 116.03 8.064C116.681 8.42667 117.187 8.928 117.55 9.568C117.923 10.208 118.11 10.9493 118.11 11.792C118.11 12.624 117.923 13.3653 117.55 14.016C117.187 14.656 116.681 15.1627 116.03 15.536C115.379 15.8987 114.643 16.08 113.822 16.08ZM113.822 15.072C114.43 15.072 114.969 14.9387 115.438 14.672C115.907 14.3947 116.275 14.0107 116.542 13.52C116.819 13.0187 116.958 12.4427 116.958 11.792C116.958 11.1307 116.819 10.5547 116.542 10.064C116.275 9.57333 115.907 9.19467 115.438 8.928C114.969 8.65067 114.435 8.512 113.838 8.512C113.241 8.512 112.707 8.65067 112.238 8.928C111.769 9.19467 111.395 9.57333 111.118 10.064C110.841 10.5547 110.702 11.1307 110.702 11.792C110.702 12.4427 110.841 13.0187 111.118 13.52C111.395 14.0107 111.769 14.3947 112.238 14.672C112.707 14.9387 113.235 15.072 113.822 15.072ZM124.874 16.08C124.149 16.08 123.493 15.9147 122.906 15.584C122.319 15.2427 121.85 14.7573 121.498 14.128C121.157 13.488 120.986 12.7093 120.986 11.792C120.986 10.8747 121.157 10.1013 121.498 9.472C121.839 8.832 122.303 8.34667 122.89 8.016C123.477 7.68533 124.138 7.52 124.874 7.52C125.674 7.52 126.389 7.70133 127.018 8.064C127.658 8.416 128.159 8.91733 128.522 9.568C128.885 10.208 129.066 10.9493 129.066 11.792C129.066 12.6453 128.885 13.392 128.522 14.032C128.159 14.672 127.658 15.1733 127.018 15.536C126.389 15.8987 125.674 16.08 124.874 16.08ZM120.538 19.104V7.6H121.626V10.128L121.514 11.808L121.674 13.504V19.104H120.538ZM124.794 15.072C125.391 15.072 125.925 14.9387 126.394 14.672C126.863 14.3947 127.237 14.0107 127.514 13.52C127.791 13.0187 127.93 12.4427 127.93 11.792C127.93 11.1413 127.791 10.5707 127.514 10.08C127.237 9.58933 126.863 9.20533 126.394 8.928C125.925 8.65067 125.391 8.512 124.794 8.512C124.197 8.512 123.658 8.65067 123.178 8.928C122.709 9.20533 122.335 9.58933 122.058 10.08C121.791 10.5707 121.658 11.1413 121.658 11.792C121.658 12.4427 121.791 13.0187 122.058 13.52C122.335 14.0107 122.709 14.3947 123.178 14.672C123.658 14.9387 124.197 15.072 124.794 15.072ZM133.7 16.096C133.092 16.096 132.489 16.0107 131.892 15.84C131.295 15.6693 130.767 15.408 130.308 15.056L130.676 14.208C131.081 14.5067 131.551 14.736 132.084 14.896C132.617 15.0453 133.145 15.12 133.668 15.12C134.191 15.1093 134.644 15.0347 135.028 14.896C135.412 14.7573 135.711 14.5653 135.924 14.32C136.137 14.0747 136.244 13.7973 136.244 13.488C136.244 13.04 136.041 12.6933 135.636 12.448C135.231 12.192 134.676 12.064 133.972 12.064H132.532V11.232H133.892C134.308 11.232 134.676 11.1787 134.996 11.072C135.316 10.9653 135.561 10.8107 135.732 10.608C135.913 10.4053 136.004 10.1653 136.004 9.888C136.004 9.58933 135.897 9.33333 135.684 9.12C135.481 8.90667 135.199 8.74667 134.836 8.64C134.473 8.53333 134.063 8.48 133.604 8.48C133.188 8.49067 132.756 8.55467 132.308 8.672C131.86 8.77867 131.417 8.944 130.98 9.168L130.66 8.288C131.151 8.032 131.636 7.84 132.116 7.712C132.607 7.57333 133.097 7.504 133.588 7.504C134.26 7.48267 134.863 7.56267 135.396 7.744C135.94 7.92533 136.372 8.18667 136.692 8.528C137.012 8.85867 137.172 9.25867 137.172 9.728C137.172 10.144 137.044 10.5067 136.788 10.816C136.532 11.1253 136.191 11.3653 135.764 11.536C135.337 11.7067 134.852 11.792 134.308 11.792L134.356 11.488C135.316 11.488 136.063 11.6747 136.596 12.048C137.14 12.4213 137.412 12.928 137.412 13.568C137.412 14.0693 137.247 14.512 136.916 14.896C136.585 15.2693 136.137 15.5627 135.572 15.776C135.017 15.9893 134.393 16.096 133.7 16.096ZM139.991 16V7.6H141.127V14.272L146.743 7.6H147.751V16H146.615V9.312L141.015 16H139.991ZM151.007 16V7.6H152.143V11.312H157.439V7.6H158.575V16H157.439V12.288H152.143V16H151.007ZM167.02 16V14.144L166.972 13.84V10.736C166.972 10.0213 166.769 9.472 166.364 9.088C165.969 8.704 165.377 8.512 164.588 8.512C164.044 8.512 163.526 8.60267 163.036 8.784C162.545 8.96533 162.129 9.20533 161.788 9.504L161.276 8.656C161.702 8.29333 162.214 8.016 162.812 7.824C163.409 7.62133 164.038 7.52 164.7 7.52C165.788 7.52 166.625 7.792 167.212 8.336C167.809 8.86933 168.108 9.68533 168.108 10.784V16H167.02ZM164.124 16.08C163.494 16.08 162.945 15.9787 162.476 15.776C162.017 15.5627 161.665 15.2747 161.42 14.912C161.174 14.5387 161.052 14.112 161.052 13.632C161.052 13.1947 161.153 12.8 161.356 12.448C161.569 12.0853 161.91 11.7973 162.38 11.584C162.86 11.36 163.5 11.248 164.299 11.248H167.196V12.096H164.332C163.521 12.096 162.956 12.24 162.636 12.528C162.326 12.816 162.172 13.1733 162.172 13.6C162.172 14.08 162.358 14.464 162.732 14.752C163.105 15.04 163.628 15.184 164.299 15.184C164.94 15.184 165.489 15.04 165.948 14.752C166.417 14.4533 166.758 14.0267 166.972 13.472L167.228 14.256C167.014 14.8107 166.641 15.2533 166.108 15.584C165.585 15.9147 164.924 16.08 164.124 16.08Z" fill="white"/>
</svg>
