<svg width="185" height="17" viewBox="0 0 185 17" fill="none" xmlns="http://www.w3.org/2000/svg">
<path d="M4.452 14.07C3.74267 14.07 3.10333 13.9113 2.534 13.594C1.96467 13.2673 1.51667 12.8193 1.19 12.25C0.863333 11.6807 0.7 11.0367 0.7 10.318C0.7 9.59933 0.863333 8.95533 1.19 8.386C1.51667 7.81667 1.96467 7.37333 2.534 7.056C3.10333 6.73867 3.74267 6.58 4.452 6.58C5.16133 6.58 5.80067 6.73867 6.37 7.056C6.93933 7.37333 7.38267 7.81667 7.7 8.386C8.02667 8.95533 8.19 9.59933 8.19 10.318C8.19 11.0367 8.02667 11.6807 7.7 12.25C7.38267 12.8193 6.93933 13.2673 6.37 13.594C5.80067 13.9113 5.16133 14.07 4.452 14.07ZM4.452 13.188C4.97467 13.188 5.44133 13.0713 5.852 12.838C6.272 12.5953 6.59867 12.2547 6.832 11.816C7.06533 11.3773 7.182 10.878 7.182 10.318C7.182 9.758 7.06533 9.25867 6.832 8.82C6.59867 8.38133 6.272 8.04533 5.852 7.812C5.44133 7.56933 4.97467 7.448 4.452 7.448C3.92933 7.448 3.458 7.56933 3.038 7.812C2.62733 8.04533 2.30067 8.38133 2.058 8.82C1.82467 9.25867 1.708 9.758 1.708 10.318C1.708 10.878 1.82467 11.3773 2.058 11.816C2.30067 12.2547 2.62733 12.5953 3.038 12.838C3.458 13.0713 3.92933 13.188 4.452 13.188ZM15.221 7.518H12.435V14H11.441V7.518H8.65495V6.636H15.221V7.518Z" fill="black"/>
<path d="M24.634 14.084C23.878 14.084 23.2013 13.8833 22.604 13.482C22.016 13.0807 21.554 12.5067 21.218 11.76C20.8913 11.004 20.728 10.1173 20.728 9.1C20.728 8.08267 20.8913 7.20067 21.218 6.454C21.554 5.698 22.016 5.11933 22.604 4.718C23.2013 4.31667 23.878 4.116 24.634 4.116C25.39 4.116 26.062 4.31667 26.65 4.718C27.2473 5.11933 27.714 5.698 28.05 6.454C28.386 7.20067 28.554 8.08267 28.554 9.1C28.554 10.1173 28.386 11.004 28.05 11.76C27.714 12.5067 27.2473 13.0807 26.65 13.482C26.062 13.8833 25.39 14.084 24.634 14.084ZM24.634 13.16C25.2033 13.16 25.7027 13.0013 26.132 12.684C26.5707 12.3667 26.9113 11.9047 27.154 11.298C27.3967 10.6913 27.518 9.95867 27.518 9.1C27.518 8.24133 27.3967 7.50867 27.154 6.902C26.9113 6.29533 26.5707 5.83333 26.132 5.516C25.7027 5.19867 25.2033 5.04 24.634 5.04C24.0647 5.04 23.5607 5.19867 23.122 5.516C22.6927 5.83333 22.3567 6.29533 22.114 6.902C21.8713 7.50867 21.75 8.24133 21.75 9.1C21.75 9.95867 21.8713 10.6913 22.114 11.298C22.3567 11.9047 22.6927 12.3667 23.122 12.684C23.5607 13.0013 24.0647 13.16 24.634 13.16ZM38.1416 6.58C38.8323 6.58 39.4576 6.73867 40.0176 7.056C40.5776 7.364 41.0163 7.80267 41.3336 8.372C41.6509 8.94133 41.8096 9.59 41.8096 10.318C41.8096 11.0553 41.6509 11.7087 41.3336 12.278C41.0163 12.8473 40.5776 13.2907 40.0176 13.608C39.4669 13.916 38.8416 14.07 38.1416 14.07C37.5443 14.07 37.0029 13.9487 36.5176 13.706C36.0416 13.454 35.6496 13.09 35.3416 12.614V16.716H34.3476V6.636H35.2996V8.092C35.5983 7.60667 35.9903 7.23333 36.4756 6.972C36.9703 6.71067 37.5256 6.58 38.1416 6.58ZM38.0716 13.188C38.5849 13.188 39.0516 13.0713 39.4716 12.838C39.8916 12.5953 40.2183 12.2547 40.4516 11.816C40.6943 11.3773 40.8156 10.878 40.8156 10.318C40.8156 9.758 40.6943 9.26333 40.4516 8.834C40.2183 8.39533 39.8916 8.05467 39.4716 7.812C39.0516 7.56933 38.5849 7.448 38.0716 7.448C37.5489 7.448 37.0776 7.56933 36.6576 7.812C36.2469 8.05467 35.9203 8.39533 35.6776 8.834C35.4443 9.26333 35.3276 9.758 35.3276 10.318C35.3276 10.878 35.4443 11.3773 35.6776 11.816C35.9203 12.2547 36.2469 12.5953 36.6576 12.838C37.0776 13.0713 37.5489 13.188 38.0716 13.188ZM49.9982 6.636L46.3162 14.882C46.0175 15.5727 45.6722 16.0627 45.2802 16.352C44.8882 16.6413 44.4168 16.786 43.8662 16.786C43.5115 16.786 43.1802 16.73 42.8722 16.618C42.5642 16.506 42.2982 16.338 42.0742 16.114L42.5362 15.372C42.9095 15.7453 43.3575 15.932 43.8802 15.932C44.2162 15.932 44.5008 15.8387 44.7342 15.652C44.9768 15.4653 45.2008 15.148 45.4062 14.7L45.7282 13.986L42.4382 6.636H43.4742L46.2462 12.894L49.0182 6.636H49.9982ZM55.0074 6.818C55.6888 6.818 56.2954 6.972 56.8274 7.28C57.3688 7.57867 57.7888 8.00333 58.0874 8.554C58.3861 9.09533 58.5354 9.716 58.5354 10.416C58.5354 11.1347 58.3768 11.774 58.0594 12.334C57.7514 12.8847 57.3174 13.314 56.7574 13.622C56.1974 13.93 55.5534 14.084 54.8254 14.084C53.6028 14.084 52.6554 13.6547 51.9834 12.796C51.3114 11.9373 50.9754 10.752 50.9754 9.24C50.9754 7.66267 51.2741 6.454 51.8714 5.614C52.4781 4.774 53.4208 4.20467 54.6994 3.906L58.0034 3.15L58.1714 4.06L55.0634 4.774C54.0088 5.00733 53.2341 5.42267 52.7394 6.02C52.2448 6.608 51.9741 7.48067 51.9274 8.638C52.2261 8.06867 52.6414 7.62533 53.1734 7.308C53.7054 6.98133 54.3168 6.818 55.0074 6.818ZM54.8534 13.258C55.3668 13.258 55.8241 13.1413 56.2254 12.908C56.6361 12.6653 56.9534 12.3293 57.1774 11.9C57.4108 11.4707 57.5274 10.9853 57.5274 10.444C57.5274 9.90267 57.4154 9.42667 57.1914 9.016C56.9674 8.60533 56.6501 8.288 56.2394 8.064C55.8381 7.83067 55.3761 7.714 54.8534 7.714C54.3308 7.714 53.8641 7.83067 53.4534 8.064C53.0521 8.288 52.7348 8.60533 52.5014 9.016C52.2774 9.42667 52.1654 9.90267 52.1654 10.444C52.1654 10.9853 52.2774 11.4707 52.5014 11.9C52.7348 12.3293 53.0568 12.6653 53.4674 12.908C53.8781 13.1413 54.3401 13.258 54.8534 13.258ZM60.5309 14.07C60.3255 14.07 60.1482 13.9953 59.9989 13.846C59.8589 13.6967 59.7889 13.5147 59.7889 13.3C59.7889 13.0853 59.8589 12.908 59.9989 12.768C60.1482 12.6187 60.3255 12.544 60.5309 12.544C60.7362 12.544 60.9135 12.6187 61.0629 12.768C61.2122 12.908 61.2869 13.0853 61.2869 13.3C61.2869 13.5147 61.2122 13.6967 61.0629 13.846C60.9135 13.9953 60.7362 14.07 60.5309 14.07Z" fill="black"/>
<path d="M85.596 13.132V15.778H84.658V14H78.064V15.778H77.126V13.132H77.546C78.0407 13.104 78.3767 12.74 78.554 12.04C78.7313 11.34 78.8527 10.36 78.918 9.1L79.016 6.636H84.448V13.132H85.596ZM79.828 9.156C79.7813 10.2013 79.6927 11.0647 79.562 11.746C79.4313 12.418 79.198 12.88 78.862 13.132H83.454V7.518H79.912L79.828 9.156ZM90.5711 14.07C89.8618 14.07 89.2225 13.9113 88.6531 13.594C88.0838 13.2673 87.6358 12.8193 87.3091 12.25C86.9825 11.6807 86.8191 11.0367 86.8191 10.318C86.8191 9.59933 86.9825 8.95533 87.3091 8.386C87.6358 7.81667 88.0838 7.37333 88.6531 7.056C89.2225 6.73867 89.8618 6.58 90.5711 6.58C91.2805 6.58 91.9198 6.73867 92.4891 7.056C93.0585 7.37333 93.5018 7.81667 93.8191 8.386C94.1458 8.95533 94.3091 9.59933 94.3091 10.318C94.3091 11.0367 94.1458 11.6807 93.8191 12.25C93.5018 12.8193 93.0585 13.2673 92.4891 13.594C91.9198 13.9113 91.2805 14.07 90.5711 14.07ZM90.5711 13.188C91.0938 13.188 91.5605 13.0713 91.9711 12.838C92.3911 12.5953 92.7178 12.2547 92.9511 11.816C93.1845 11.3773 93.3011 10.878 93.3011 10.318C93.3011 9.758 93.1845 9.25867 92.9511 8.82C92.7178 8.38133 92.3911 8.04533 91.9711 7.812C91.5605 7.56933 91.0938 7.448 90.5711 7.448C90.0485 7.448 89.5771 7.56933 89.1571 7.812C88.7465 8.04533 88.4198 8.38133 88.1771 8.82C87.9438 9.25867 87.8271 9.758 87.8271 10.318C87.8271 10.878 87.9438 11.3773 88.1771 11.816C88.4198 12.2547 88.7465 12.5953 89.1571 12.838C89.5771 13.0713 90.0485 13.188 90.5711 13.188Z" fill="black"/>
<path d="M103.444 4.2V14H102.436V5.096H100.126V4.2H103.444ZM109.693 14.084C108.937 14.084 108.26 13.8833 107.663 13.482C107.075 13.0807 106.613 12.5067 106.277 11.76C105.95 11.004 105.787 10.1173 105.787 9.1C105.787 8.08267 105.95 7.20067 106.277 6.454C106.613 5.698 107.075 5.11933 107.663 4.718C108.26 4.31667 108.937 4.116 109.693 4.116C110.449 4.116 111.121 4.31667 111.709 4.718C112.306 5.11933 112.773 5.698 113.109 6.454C113.445 7.20067 113.613 8.08267 113.613 9.1C113.613 10.1173 113.445 11.004 113.109 11.76C112.773 12.5067 112.306 13.0807 111.709 13.482C111.121 13.8833 110.449 14.084 109.693 14.084ZM109.693 13.16C110.262 13.16 110.761 13.0013 111.191 12.684C111.629 12.3667 111.97 11.9047 112.213 11.298C112.455 10.6913 112.577 9.95867 112.577 9.1C112.577 8.24133 112.455 7.50867 112.213 6.902C111.97 6.29533 111.629 5.83333 111.191 5.516C110.761 5.19867 110.262 5.04 109.693 5.04C109.123 5.04 108.619 5.19867 108.181 5.516C107.751 5.83333 107.415 6.29533 107.173 6.902C106.93 7.50867 106.809 8.24133 106.809 9.1C106.809 9.95867 106.93 10.6913 107.173 11.298C107.415 11.9047 107.751 12.3667 108.181 12.684C108.619 13.0013 109.123 13.16 109.693 13.16ZM118.962 14.084C118.206 14.084 117.529 13.8833 116.932 13.482C116.344 13.0807 115.882 12.5067 115.546 11.76C115.219 11.004 115.056 10.1173 115.056 9.1C115.056 8.08267 115.219 7.20067 115.546 6.454C115.882 5.698 116.344 5.11933 116.932 4.718C117.529 4.31667 118.206 4.116 118.962 4.116C119.718 4.116 120.39 4.31667 120.978 4.718C121.575 5.11933 122.042 5.698 122.378 6.454C122.714 7.20067 122.882 8.08267 122.882 9.1C122.882 10.1173 122.714 11.004 122.378 11.76C122.042 12.5067 121.575 13.0807 120.978 13.482C120.39 13.8833 119.718 14.084 118.962 14.084ZM118.962 13.16C119.531 13.16 120.031 13.0013 120.46 12.684C120.899 12.3667 121.239 11.9047 121.482 11.298C121.725 10.6913 121.846 9.95867 121.846 9.1C121.846 8.24133 121.725 7.50867 121.482 6.902C121.239 6.29533 120.899 5.83333 120.46 5.516C120.031 5.19867 119.531 5.04 118.962 5.04C118.393 5.04 117.889 5.19867 117.45 5.516C117.021 5.83333 116.685 6.29533 116.442 6.902C116.199 7.50867 116.078 8.24133 116.078 9.1C116.078 9.95867 116.199 10.6913 116.442 11.298C116.685 11.9047 117.021 12.3667 117.45 12.684C117.889 13.0013 118.393 13.16 118.962 13.16ZM128.232 14.084C127.476 14.084 126.799 13.8833 126.202 13.482C125.614 13.0807 125.152 12.5067 124.816 11.76C124.489 11.004 124.326 10.1173 124.326 9.1C124.326 8.08267 124.489 7.20067 124.816 6.454C125.152 5.698 125.614 5.11933 126.202 4.718C126.799 4.31667 127.476 4.116 128.232 4.116C128.988 4.116 129.66 4.31667 130.248 4.718C130.845 5.11933 131.312 5.698 131.648 6.454C131.984 7.20067 132.152 8.08267 132.152 9.1C132.152 10.1173 131.984 11.004 131.648 11.76C131.312 12.5067 130.845 13.0807 130.248 13.482C129.66 13.8833 128.988 14.084 128.232 14.084ZM128.232 13.16C128.801 13.16 129.3 13.0013 129.73 12.684C130.168 12.3667 130.509 11.9047 130.752 11.298C130.994 10.6913 131.116 9.95867 131.116 9.1C131.116 8.24133 130.994 7.50867 130.752 6.902C130.509 6.29533 130.168 5.83333 129.73 5.516C129.3 5.19867 128.801 5.04 128.232 5.04C127.662 5.04 127.158 5.19867 126.72 5.516C126.29 5.83333 125.954 6.29533 125.712 6.902C125.469 7.50867 125.348 8.24133 125.348 9.1C125.348 9.95867 125.469 10.6913 125.712 11.298C125.954 11.9047 126.29 12.3667 126.72 12.684C127.158 13.0013 127.662 13.16 128.232 13.16ZM137.501 14.084C136.745 14.084 136.069 13.8833 135.471 13.482C134.883 13.0807 134.421 12.5067 134.085 11.76C133.759 11.004 133.595 10.1173 133.595 9.1C133.595 8.08267 133.759 7.20067 134.085 6.454C134.421 5.698 134.883 5.11933 135.471 4.718C136.069 4.31667 136.745 4.116 137.501 4.116C138.257 4.116 138.929 4.31667 139.517 4.718C140.115 5.11933 140.581 5.698 140.917 6.454C141.253 7.20067 141.421 8.08267 141.421 9.1C141.421 10.1173 141.253 11.004 140.917 11.76C140.581 12.5067 140.115 13.0807 139.517 13.482C138.929 13.8833 138.257 14.084 137.501 14.084ZM137.501 13.16C138.071 13.16 138.57 13.0013 138.999 12.684C139.438 12.3667 139.779 11.9047 140.021 11.298C140.264 10.6913 140.385 9.95867 140.385 9.1C140.385 8.24133 140.264 7.50867 140.021 6.902C139.779 6.29533 139.438 5.83333 138.999 5.516C138.57 5.19867 138.071 5.04 137.501 5.04C136.932 5.04 136.428 5.19867 135.989 5.516C135.56 5.83333 135.224 6.29533 134.981 6.902C134.739 7.50867 134.617 8.24133 134.617 9.1C134.617 9.95867 134.739 10.6913 134.981 11.298C135.224 11.9047 135.56 12.3667 135.989 12.684C136.428 13.0013 136.932 13.16 137.501 13.16ZM146.771 14.084C146.015 14.084 145.338 13.8833 144.741 13.482C144.153 13.0807 143.691 12.5067 143.355 11.76C143.028 11.004 142.865 10.1173 142.865 9.1C142.865 8.08267 143.028 7.20067 143.355 6.454C143.691 5.698 144.153 5.11933 144.741 4.718C145.338 4.31667 146.015 4.116 146.771 4.116C147.527 4.116 148.199 4.31667 148.787 4.718C149.384 5.11933 149.851 5.698 150.187 6.454C150.523 7.20067 150.691 8.08267 150.691 9.1C150.691 10.1173 150.523 11.004 150.187 11.76C149.851 12.5067 149.384 13.0807 148.787 13.482C148.199 13.8833 147.527 14.084 146.771 14.084ZM146.771 13.16C147.34 13.16 147.839 13.0013 148.269 12.684C148.707 12.3667 149.048 11.9047 149.291 11.298C149.533 10.6913 149.655 9.95867 149.655 9.1C149.655 8.24133 149.533 7.50867 149.291 6.902C149.048 6.29533 148.707 5.83333 148.269 5.516C147.839 5.19867 147.34 5.04 146.771 5.04C146.201 5.04 145.697 5.19867 145.259 5.516C144.829 5.83333 144.493 6.29533 144.251 6.902C144.008 7.50867 143.887 8.24133 143.887 9.1C143.887 9.95867 144.008 10.6913 144.251 11.298C144.493 11.9047 144.829 12.3667 145.259 12.684C145.697 13.0013 146.201 13.16 146.771 13.16ZM160.278 6.58C160.969 6.58 161.594 6.73867 162.154 7.056C162.714 7.364 163.153 7.80267 163.47 8.372C163.788 8.94133 163.946 9.59 163.946 10.318C163.946 11.0553 163.788 11.7087 163.47 12.278C163.153 12.8473 162.714 13.2907 162.154 13.608C161.604 13.916 160.978 14.07 160.278 14.07C159.681 14.07 159.14 13.9487 158.654 13.706C158.178 13.454 157.786 13.09 157.478 12.614V16.716H156.484V6.636H157.436V8.092C157.735 7.60667 158.127 7.23333 158.612 6.972C159.107 6.71067 159.662 6.58 160.278 6.58ZM160.208 13.188C160.722 13.188 161.188 13.0713 161.608 12.838C162.028 12.5953 162.355 12.2547 162.588 11.816C162.831 11.3773 162.952 10.878 162.952 10.318C162.952 9.758 162.831 9.26333 162.588 8.834C162.355 8.39533 162.028 8.05467 161.608 7.812C161.188 7.56933 160.722 7.448 160.208 7.448C159.686 7.448 159.214 7.56933 158.794 7.812C158.384 8.05467 158.057 8.39533 157.814 8.834C157.581 9.26333 157.464 9.758 157.464 10.318C157.464 10.878 157.581 11.3773 157.814 11.816C158.057 12.2547 158.384 12.5953 158.794 12.838C159.214 13.0713 159.686 13.188 160.208 13.188ZM172.135 6.636L168.453 14.882C168.154 15.5727 167.809 16.0627 167.417 16.352C167.025 16.6413 166.554 16.786 166.003 16.786C165.648 16.786 165.317 16.73 165.009 16.618C164.701 16.506 164.435 16.338 164.211 16.114L164.673 15.372C165.046 15.7453 165.494 15.932 166.017 15.932C166.353 15.932 166.638 15.8387 166.871 15.652C167.114 15.4653 167.338 15.148 167.543 14.7L167.865 13.986L164.575 6.636H165.611L168.383 12.894L171.155 6.636H172.135ZM177.144 6.818C177.825 6.818 178.432 6.972 178.964 7.28C179.505 7.57867 179.925 8.00333 180.224 8.554C180.523 9.09533 180.672 9.716 180.672 10.416C180.672 11.1347 180.513 11.774 180.196 12.334C179.888 12.8847 179.454 13.314 178.894 13.622C178.334 13.93 177.69 14.084 176.962 14.084C175.739 14.084 174.792 13.6547 174.12 12.796C173.448 11.9373 173.112 10.752 173.112 9.24C173.112 7.66267 173.411 6.454 174.008 5.614C174.615 4.774 175.557 4.20467 176.836 3.906L180.14 3.15L180.308 4.06L177.2 4.774C176.145 5.00733 175.371 5.42267 174.876 6.02C174.381 6.608 174.111 7.48067 174.064 8.638C174.363 8.06867 174.778 7.62533 175.31 7.308C175.842 6.98133 176.453 6.818 177.144 6.818ZM176.99 13.258C177.503 13.258 177.961 13.1413 178.362 12.908C178.773 12.6653 179.09 12.3293 179.314 11.9C179.547 11.4707 179.664 10.9853 179.664 10.444C179.664 9.90267 179.552 9.42667 179.328 9.016C179.104 8.60533 178.787 8.288 178.376 8.064C177.975 7.83067 177.513 7.714 176.99 7.714C176.467 7.714 176.001 7.83067 175.59 8.064C175.189 8.288 174.871 8.60533 174.638 9.016C174.414 9.42667 174.302 9.90267 174.302 10.444C174.302 10.9853 174.414 11.4707 174.638 11.9C174.871 12.3293 175.193 12.6653 175.604 12.908C176.015 13.1413 176.477 13.258 176.99 13.258ZM182.668 14.07C182.462 14.07 182.285 13.9953 182.136 13.846C181.996 13.6967 181.926 13.5147 181.926 13.3C181.926 13.0853 181.996 12.908 182.136 12.768C182.285 12.6187 182.462 12.544 182.668 12.544C182.873 12.544 183.05 12.6187 183.2 12.768C183.349 12.908 183.424 13.0853 183.424 13.3C183.424 13.5147 183.349 13.6967 183.2 13.846C183.05 13.9953 182.873 14.07 182.668 14.07Z" fill="black"/>
</svg>
