<svg width="158" height="32" viewBox="0 0 158 32" fill="none" xmlns="http://www.w3.org/2000/svg">
<path d="M15.9445 18.624C17.4631 19.032 18.6191 19.7347 19.4125 20.732C20.2058 21.7067 20.6025 22.9307 20.6025 24.404C20.6025 26.4893 19.8318 28.11 18.2905 29.266C16.7491 30.422 14.5165 31 11.5925 31H0.304477V7.2H10.9465C13.6211 7.2 15.7065 7.73266 17.2025 8.798C18.6985 9.86333 19.4465 11.3707 19.4465 13.32C19.4465 14.5667 19.1405 15.6433 18.5285 16.55C17.9391 17.4567 17.0778 18.148 15.9445 18.624ZM4.65648 17.366H10.5725C12.0005 17.366 13.0885 17.0827 13.8365 16.516C14.5845 15.9493 14.9585 15.1107 14.9585 14C14.9585 12.8893 14.5845 12.0507 13.8365 11.484C13.0885 10.8947 12.0005 10.6 10.5725 10.6H4.65648V17.366ZM11.4565 27.6C14.5845 27.6 16.1485 26.4213 16.1485 24.064C16.1485 21.752 14.5845 20.596 11.4565 20.596H4.65648V27.6H11.4565ZM41.4137 25.492H29.5137L27.1677 31H22.6117L33.3217 7.2H37.6737L48.4177 31H43.7937L41.4137 25.492ZM39.9517 22.024L35.4637 11.62L31.0097 22.024H39.9517ZM73.2154 7.2V31H68.7954V20.8H56.4874V31H52.0674V7.2H56.4874V17.026H68.7954V7.2H73.2154ZM101.04 7.2V31H96.6196V20.8H84.3116V31H79.8916V7.2H84.3116V17.026H96.6196V7.2H101.04ZM118.732 31.34C116.306 31.34 114.119 30.8187 112.17 29.776C110.22 28.7107 108.69 27.2487 107.58 25.39C106.469 23.5087 105.914 21.412 105.914 19.1C105.914 16.788 106.469 14.7027 107.58 12.844C108.69 10.9627 110.22 9.50067 112.17 8.458C114.119 7.39267 116.306 6.86 118.732 6.86C121.157 6.86 123.344 7.39267 125.294 8.458C127.243 9.50067 128.773 10.9513 129.884 12.81C130.994 14.6687 131.55 16.7653 131.55 19.1C131.55 21.4347 130.994 23.5313 129.884 25.39C128.773 27.2487 127.243 28.7107 125.294 29.776C123.344 30.8187 121.157 31.34 118.732 31.34ZM118.732 27.464C120.318 27.464 121.746 27.1127 123.016 26.41C124.285 25.6847 125.282 24.6873 126.008 23.418C126.733 22.126 127.096 20.6867 127.096 19.1C127.096 17.5133 126.733 16.0853 126.008 14.816C125.282 13.524 124.285 12.5267 123.016 11.824C121.746 11.0987 120.318 10.736 118.732 10.736C117.145 10.736 115.717 11.0987 114.448 11.824C113.178 12.5267 112.181 13.524 111.456 14.816C110.73 16.0853 110.368 17.5133 110.368 19.1C110.368 20.6867 110.73 22.126 111.456 23.418C112.181 24.6873 113.178 25.6847 114.448 26.41C115.717 27.1127 117.145 27.464 118.732 27.464ZM136.47 7.2H140.822V24.098L153.606 7.2H157.72V31H153.368V14.136L140.584 31H136.47V7.2ZM147.044 5.602C145.004 5.602 143.463 5.18267 142.42 4.344C141.4 3.50533 140.879 2.28133 140.856 0.671999H143.95C143.973 1.51067 144.245 2.15667 144.766 2.61C145.288 3.06333 146.047 3.29 147.044 3.29C148.019 3.29 148.778 3.06333 149.322 2.61C149.889 2.15667 150.184 1.51067 150.206 0.671999H153.266C153.244 2.25867 152.7 3.48267 151.634 4.344C150.592 5.18267 149.062 5.602 147.044 5.602Z" fill="white"/>
</svg>
