<svg width="64" height="13" viewBox="0 0 64 13" fill="none" xmlns="http://www.w3.org/2000/svg">
<path d="M8.008 1.824H2.04L2.056 12H0.888V0.799999H8.008V1.824ZM14.1366 3.584V12H13.0006V4.592H8.96863L8.85663 6.672C8.77129 8.42133 8.56863 9.76533 8.24863 10.704C7.92863 11.6427 7.35796 12.112 6.53663 12.112C6.31263 12.112 6.04063 12.0693 5.72063 11.984L5.80063 11.008C5.99263 11.0507 6.12596 11.072 6.20063 11.072C6.63796 11.072 6.96863 10.8693 7.19263 10.464C7.41663 10.0587 7.56596 9.55733 7.64062 8.96C7.71529 8.36267 7.77929 7.57333 7.83263 6.592L7.97663 3.584H14.1366ZM20.262 3.52C21.3607 3.52 22.2033 3.79733 22.79 4.352C23.3767 4.896 23.67 5.70667 23.67 6.784V12H22.582V10.688C22.326 11.1253 21.9473 11.4667 21.446 11.712C20.9553 11.9573 20.3687 12.08 19.686 12.08C18.7473 12.08 18.0007 11.856 17.446 11.408C16.8913 10.96 16.614 10.368 16.614 9.632C16.614 8.91733 16.87 8.34133 17.382 7.904C17.9047 7.46667 18.7313 7.248 19.862 7.248H22.534V6.736C22.534 6.01067 22.3313 5.46133 21.926 5.088C21.5207 4.704 20.9287 4.512 20.15 4.512C19.6167 4.512 19.1047 4.60267 18.614 4.784C18.1233 4.95467 17.702 5.19467 17.35 5.504L16.838 4.656C17.2647 4.29333 17.7767 4.016 18.374 3.824C18.9713 3.62133 19.6007 3.52 20.262 3.52ZM19.862 11.184C20.502 11.184 21.0513 11.04 21.51 10.752C21.9687 10.4533 22.31 10.0267 22.534 9.472V8.096H19.894C18.454 8.096 17.734 8.59733 17.734 9.6C17.734 10.0907 17.9207 10.48 18.294 10.768C18.6673 11.0453 19.19 11.184 19.862 11.184ZM32.0541 7.648C33.1955 7.91467 33.7661 8.60267 33.7661 9.712C33.7661 10.448 33.4941 11.0133 32.9501 11.408C32.4061 11.8027 31.5955 12 30.5181 12H26.6941V3.584H30.4061C31.3661 3.584 32.1181 3.77067 32.6621 4.144C33.2061 4.51733 33.4781 5.05067 33.4781 5.744C33.4781 6.20267 33.3501 6.59733 33.0941 6.928C32.8488 7.248 32.5021 7.488 32.0541 7.648ZM27.7981 7.328H30.3261C30.9768 7.328 31.4728 7.20533 31.8141 6.96C32.1661 6.71467 32.3421 6.35733 32.3421 5.888C32.3421 5.41867 32.1661 5.06667 31.8141 4.832C31.4728 4.59733 30.9768 4.48 30.3261 4.48H27.7981V7.328ZM30.4701 11.104C31.1955 11.104 31.7395 10.9867 32.1021 10.752C32.4648 10.5173 32.6461 10.1493 32.6461 9.648C32.6461 9.14667 32.4808 8.77867 32.1501 8.544C31.8195 8.29867 31.2968 8.176 30.5821 8.176H27.7981V11.104H30.4701ZM36.4285 3.584H37.5645V7.312H42.8605V3.584H43.9965V12H42.8605V8.288H37.5645V12H36.4285V3.584ZM50.1214 3.52C51.22 3.52 52.0627 3.79733 52.6494 4.352C53.236 4.896 53.5294 5.70667 53.5294 6.784V12H52.4414V10.688C52.1854 11.1253 51.8067 11.4667 51.3054 11.712C50.8147 11.9573 50.228 12.08 49.5454 12.08C48.6067 12.08 47.86 11.856 47.3054 11.408C46.7507 10.96 46.4734 10.368 46.4734 9.632C46.4734 8.91733 46.7294 8.34133 47.2414 7.904C47.764 7.46667 48.5907 7.248 49.7214 7.248H52.3934V6.736C52.3934 6.01067 52.1907 5.46133 51.7854 5.088C51.38 4.704 50.788 4.512 50.0094 4.512C49.476 4.512 48.964 4.60267 48.4734 4.784C47.9827 4.95467 47.5614 5.19467 47.2094 5.504L46.6974 4.656C47.124 4.29333 47.636 4.016 48.2334 3.824C48.8307 3.62133 49.46 3.52 50.1214 3.52ZM49.7214 11.184C50.3614 11.184 50.9107 11.04 51.3694 10.752C51.828 10.4533 52.1694 10.0267 52.3934 9.472V8.096H49.7534C48.3134 8.096 47.5934 8.59733 47.5934 9.6C47.5934 10.0907 47.78 10.48 48.1534 10.768C48.5267 11.0453 49.0494 11.184 49.7214 11.184ZM63.0175 3.584V12H61.9775V9.216H59.3375H59.0175L57.0655 12H55.8335L57.9295 9.056C57.2788 8.87467 56.7775 8.56533 56.4255 8.128C56.0735 7.69067 55.8975 7.136 55.8975 6.464C55.8975 5.52533 56.2175 4.81067 56.8575 4.32C57.4975 3.82933 58.3722 3.584 59.4815 3.584H63.0175ZM57.0495 6.496C57.0495 7.744 57.8442 8.368 59.4335 8.368H61.9775V4.592H59.5135C57.8708 4.592 57.0495 5.22667 57.0495 6.496Z" fill="black"/>
</svg>
