<svg width="173" height="37" viewBox="0 0 173 37" fill="none" xmlns="http://www.w3.org/2000/svg">
<path d="M26.8567 27.26V36.066H22.7767V31H4.51871V36.066H0.404711L0.438711 27.26H1.45871C2.95471 27.192 3.99738 26.0927 4.58671 23.962C5.19871 21.8087 5.57271 18.7373 5.70871 14.748L5.98071 7.2H23.4227V27.26H26.8567ZM9.58471 15.156C9.47138 18.2387 9.22204 20.8113 8.83671 22.874C8.45138 24.914 7.83938 26.376 7.00071 27.26H19.0707V10.94H9.75471L9.58471 15.156ZM48.8685 27.294V31H31.0185V7.2H48.3925V10.906H35.4385V17.094H46.9305V20.732H35.4385V27.294H48.8685ZM71.0679 10.94H63.1799V31H58.7939V10.94H50.9399V7.2H71.0679V10.94ZM85.4958 31.34C83.0932 31.34 80.9172 30.8187 78.9678 29.776C77.0412 28.7107 75.5225 27.2487 74.4118 25.39C73.3238 23.5313 72.7798 21.4347 72.7798 19.1C72.7798 16.7653 73.3352 14.6687 74.4458 12.81C75.5565 10.9513 77.0752 9.50067 79.0018 8.458C80.9512 7.39267 83.1272 6.86 85.5298 6.86C87.4792 6.86 89.2585 7.2 90.8678 7.88C92.4772 8.56 93.8372 9.546 94.9478 10.838L92.0918 13.524C90.3692 11.6653 88.2498 10.736 85.7338 10.736C84.1018 10.736 82.6398 11.0987 81.3478 11.824C80.0558 12.5267 79.0472 13.5127 78.3218 14.782C77.5965 16.0513 77.2338 17.4907 77.2338 19.1C77.2338 20.7093 77.5965 22.1487 78.3218 23.418C79.0472 24.6873 80.0558 25.6847 81.3478 26.41C82.6398 27.1127 84.1018 27.464 85.7338 27.464C88.2498 27.464 90.3692 26.5233 92.0918 24.642L94.9478 27.362C93.8372 28.654 92.4658 29.64 90.8338 30.32C89.2245 31 87.4452 31.34 85.4958 31.34ZM107.824 20.97H103.404V31H99.0517V7.2H103.404V17.162H107.96L114.794 7.2H119.486L111.36 18.726L119.792 31H114.794L107.824 20.97ZM133.742 31.34C131.316 31.34 129.129 30.8187 127.18 29.776C125.23 28.7107 123.7 27.2487 122.59 25.39C121.479 23.5087 120.924 21.412 120.924 19.1C120.924 16.788 121.479 14.7027 122.59 12.844C123.7 10.9627 125.23 9.50067 127.18 8.458C129.129 7.39267 131.316 6.86 133.742 6.86C136.167 6.86 138.354 7.39267 140.304 8.458C142.253 9.50067 143.783 10.9513 144.894 12.81C146.004 14.6687 146.56 16.7653 146.56 19.1C146.56 21.4347 146.004 23.5313 144.894 25.39C143.783 27.2487 142.253 28.7107 140.304 29.776C138.354 30.8187 136.167 31.34 133.742 31.34ZM133.742 27.464C135.328 27.464 136.756 27.1127 138.026 26.41C139.295 25.6847 140.292 24.6873 141.018 23.418C141.743 22.126 142.106 20.6867 142.106 19.1C142.106 17.5133 141.743 16.0853 141.018 14.816C140.292 13.524 139.295 12.5267 138.026 11.824C136.756 11.0987 135.328 10.736 133.742 10.736C132.155 10.736 130.727 11.0987 129.458 11.824C128.188 12.5267 127.191 13.524 126.466 14.816C125.74 16.0853 125.378 17.5133 125.378 19.1C125.378 20.6867 125.74 22.126 126.466 23.418C127.191 24.6873 128.188 25.6847 129.458 26.41C130.727 27.1127 132.155 27.464 133.742 27.464ZM151.48 7.2H155.832V24.098L168.616 7.2H172.73V31H168.378V14.136L155.594 31H151.48V7.2ZM162.054 5.602C160.014 5.602 158.473 5.18267 157.43 4.344C156.41 3.50533 155.889 2.28133 155.866 0.671999H158.96C158.983 1.51067 159.255 2.15667 159.776 2.61C160.298 3.06333 161.057 3.29 162.054 3.29C163.029 3.29 163.788 3.06333 164.332 2.61C164.899 2.15667 165.194 1.51067 165.216 0.671999H168.276C168.254 2.25867 167.71 3.48267 166.644 4.344C165.602 5.18267 164.072 5.602 162.054 5.602Z" fill="white"/>
</svg>
