<svg width="135" height="16" viewBox="0 0 135 16" fill="none" xmlns="http://www.w3.org/2000/svg">
<path d="M4.6 6.864H2.04V12H0.888V0.799999H2.04V5.824H4.6L8.392 0.799999H9.672L5.512 6.24L9.912 12H8.552L4.6 6.864ZM14.4964 3.52C15.595 3.52 16.4377 3.79733 17.0244 4.352C17.611 4.896 17.9044 5.70667 17.9044 6.784V12H16.8164V10.688C16.5604 11.1253 16.1817 11.4667 15.6804 11.712C15.1897 11.9573 14.603 12.08 13.9204 12.08C12.9817 12.08 12.235 11.856 11.6804 11.408C11.1257 10.96 10.8484 10.368 10.8484 9.632C10.8484 8.91733 11.1044 8.34133 11.6164 7.904C12.139 7.46667 12.9657 7.248 14.0964 7.248H16.7684V6.736C16.7684 6.01067 16.5657 5.46133 16.1604 5.088C15.755 4.704 15.163 4.512 14.3844 4.512C13.851 4.512 13.339 4.60267 12.8484 4.784C12.3577 4.95467 11.9364 5.19467 11.5844 5.504L11.0724 4.656C11.499 4.29333 12.011 4.016 12.6084 3.824C13.2057 3.62133 13.835 3.52 14.4964 3.52ZM14.0964 11.184C14.7364 11.184 15.2857 11.04 15.7444 10.752C16.203 10.4533 16.5444 10.0267 16.7684 9.472V8.096H14.1284C12.6884 8.096 11.9684 8.59733 11.9684 9.6C11.9684 10.0907 12.155 10.48 12.5284 10.768C12.9017 11.0453 13.4244 11.184 14.0964 11.184ZM26.8485 4.592H23.6645V12H22.5285V4.592H19.3445V3.584H26.8485V4.592ZM31.387 3.52C32.4857 3.52 33.3283 3.79733 33.915 4.352C34.5017 4.896 34.795 5.70667 34.795 6.784V12H33.707V10.688C33.451 11.1253 33.0723 11.4667 32.571 11.712C32.0803 11.9573 31.4937 12.08 30.811 12.08C29.8723 12.08 29.1257 11.856 28.571 11.408C28.0163 10.96 27.739 10.368 27.739 9.632C27.739 8.91733 27.995 8.34133 28.507 7.904C29.0297 7.46667 29.8563 7.248 30.987 7.248H33.659V6.736C33.659 6.01067 33.4563 5.46133 33.051 5.088C32.6457 4.704 32.0537 4.512 31.275 4.512C30.7417 4.512 30.2297 4.60267 29.739 4.784C29.2483 4.95467 28.827 5.19467 28.475 5.504L27.963 4.656C28.3897 4.29333 28.9017 4.016 29.499 3.824C30.0963 3.62133 30.7257 3.52 31.387 3.52ZM30.987 11.184C31.627 11.184 32.1763 11.04 32.635 10.752C33.0937 10.4533 33.435 10.0267 33.659 9.472V8.096H31.019C29.579 8.096 28.859 8.59733 28.859 9.6C28.859 10.0907 29.0457 10.48 29.419 10.768C29.7923 11.0453 30.315 11.184 30.987 11.184ZM44.6991 3.584V12H43.5631V4.592H39.5311L39.4191 6.672C39.3338 8.42133 39.1311 9.76533 38.8111 10.704C38.4911 11.6427 37.9205 12.112 37.0991 12.112C36.8751 12.112 36.6031 12.0693 36.2831 11.984L36.3631 11.008C36.5551 11.0507 36.6885 11.072 36.7631 11.072C37.2005 11.072 37.5311 10.8693 37.7551 10.464C37.9791 10.0587 38.1285 9.55733 38.2031 8.96C38.2778 8.36267 38.3418 7.57333 38.3951 6.592L38.5391 3.584H44.6991ZM51.4005 12.08C50.5898 12.08 49.8592 11.8987 49.2085 11.536C48.5578 11.1627 48.0458 10.6507 47.6725 10C47.2992 9.34933 47.1125 8.61333 47.1125 7.792C47.1125 6.97067 47.2992 6.23467 47.6725 5.584C48.0458 4.93333 48.5578 4.42667 49.2085 4.064C49.8592 3.70133 50.5898 3.52 51.4005 3.52C52.2112 3.52 52.9418 3.70133 53.5925 4.064C54.2432 4.42667 54.7498 4.93333 55.1125 5.584C55.4858 6.23467 55.6725 6.97067 55.6725 7.792C55.6725 8.61333 55.4858 9.34933 55.1125 10C54.7498 10.6507 54.2432 11.1627 53.5925 11.536C52.9418 11.8987 52.2112 12.08 51.4005 12.08ZM51.4005 11.072C51.9978 11.072 52.5312 10.9387 53.0005 10.672C53.4805 10.3947 53.8538 10.0053 54.1205 9.504C54.3872 9.00267 54.5205 8.432 54.5205 7.792C54.5205 7.152 54.3872 6.58133 54.1205 6.08C53.8538 5.57867 53.4805 5.19467 53.0005 4.928C52.5312 4.65067 51.9978 4.512 51.4005 4.512C50.8032 4.512 50.2645 4.65067 49.7845 4.928C49.3152 5.19467 48.9418 5.57867 48.6645 6.08C48.3978 6.58133 48.2645 7.152 48.2645 7.792C48.2645 8.432 48.3978 9.00267 48.6645 9.504C48.9418 10.0053 49.3152 10.3947 49.7845 10.672C50.2645 10.9387 50.8032 11.072 51.4005 11.072ZM64.0524 4.592H59.2364V12H58.1004V3.584H64.0524V4.592ZM75.8016 4.592H72.6176V12H71.4816V4.592H68.2976V3.584H75.8016V4.592ZM80.5255 12.08C79.7148 12.08 78.9842 11.8987 78.3335 11.536C77.6828 11.1627 77.1708 10.6507 76.7975 10C76.4242 9.34933 76.2375 8.61333 76.2375 7.792C76.2375 6.97067 76.4242 6.23467 76.7975 5.584C77.1708 4.93333 77.6828 4.42667 78.3335 4.064C78.9842 3.70133 79.7148 3.52 80.5255 3.52C81.3362 3.52 82.0668 3.70133 82.7175 4.064C83.3682 4.42667 83.8748 4.93333 84.2375 5.584C84.6108 6.23467 84.7975 6.97067 84.7975 7.792C84.7975 8.61333 84.6108 9.34933 84.2375 10C83.8748 10.6507 83.3682 11.1627 82.7175 11.536C82.0668 11.8987 81.3362 12.08 80.5255 12.08ZM80.5255 11.072C81.1228 11.072 81.6562 10.9387 82.1255 10.672C82.6055 10.3947 82.9788 10.0053 83.2455 9.504C83.5122 9.00267 83.6455 8.432 83.6455 7.792C83.6455 7.152 83.5122 6.58133 83.2455 6.08C82.9788 5.57867 82.6055 5.19467 82.1255 4.928C81.6562 4.65067 81.1228 4.512 80.5255 4.512C79.9282 4.512 79.3895 4.65067 78.9095 4.928C78.4402 5.19467 78.0668 5.57867 77.7895 6.08C77.5228 6.58133 77.3895 7.152 77.3895 7.792C77.3895 8.432 77.5228 9.00267 77.7895 9.504C78.0668 10.0053 78.4402 10.3947 78.9095 10.672C79.3895 10.9387 79.9282 11.072 80.5255 11.072ZM92.5854 7.648C93.7267 7.91467 94.2974 8.60267 94.2974 9.712C94.2974 10.448 94.0254 11.0133 93.4814 11.408C92.9374 11.8027 92.1267 12 91.0494 12H87.2254V3.584H90.9374C91.8974 3.584 92.6494 3.77067 93.1934 4.144C93.7374 4.51733 94.0094 5.05067 94.0094 5.744C94.0094 6.20267 93.8814 6.59733 93.6254 6.928C93.38 7.248 93.0334 7.488 92.5854 7.648ZM88.3294 7.328H90.8574C91.508 7.328 92.004 7.20533 92.3454 6.96C92.6974 6.71467 92.8734 6.35733 92.8734 5.888C92.8734 5.41867 92.6974 5.06667 92.3454 4.832C92.004 4.59733 91.508 4.48 90.8574 4.48H88.3294V7.328ZM91.0014 11.104C91.7267 11.104 92.2707 10.9867 92.6334 10.752C92.996 10.5173 93.1774 10.1493 93.1774 9.648C93.1774 9.14667 93.012 8.77867 92.6814 8.544C92.3507 8.29867 91.828 8.176 91.1134 8.176H88.3294V11.104H91.0014ZM99.8558 3.52C100.954 3.52 101.797 3.79733 102.384 4.352C102.97 4.896 103.264 5.70667 103.264 6.784V12H102.176V10.688C101.92 11.1253 101.541 11.4667 101.04 11.712C100.549 11.9573 99.9624 12.08 99.2798 12.08C98.3411 12.08 97.5944 11.856 97.0398 11.408C96.4851 10.96 96.2078 10.368 96.2078 9.632C96.2078 8.91733 96.4638 8.34133 96.9758 7.904C97.4984 7.46667 98.3251 7.248 99.4557 7.248H102.128V6.736C102.128 6.01067 101.925 5.46133 101.52 5.088C101.114 4.704 100.522 4.512 99.7438 4.512C99.2104 4.512 98.6984 4.60267 98.2078 4.784C97.7171 4.95467 97.2958 5.19467 96.9438 5.504L96.4318 4.656C96.8584 4.29333 97.3704 4.016 97.9678 3.824C98.5651 3.62133 99.1944 3.52 99.8558 3.52ZM99.4557 11.184C100.096 11.184 100.645 11.04 101.104 10.752C101.562 10.4533 101.904 10.0267 102.128 9.472V8.096H99.4878C98.0478 8.096 97.3278 8.59733 97.3278 9.6C97.3278 10.0907 97.5144 10.48 97.8878 10.768C98.2611 11.0453 98.7838 11.184 99.4557 11.184ZM110.624 3.52C111.413 3.52 112.128 3.70133 112.768 4.064C113.408 4.416 113.909 4.91733 114.272 5.568C114.635 6.21867 114.816 6.96 114.816 7.792C114.816 8.63467 114.635 9.38133 114.272 10.032C113.909 10.6827 113.408 11.1893 112.768 11.552C112.139 11.904 111.424 12.08 110.624 12.08C109.941 12.08 109.323 11.9413 108.768 11.664C108.224 11.376 107.776 10.96 107.424 10.416V15.104H106.288V3.584H107.376V5.248C107.717 4.69333 108.165 4.26667 108.72 3.968C109.285 3.66933 109.92 3.52 110.624 3.52ZM110.544 11.072C111.131 11.072 111.664 10.9387 112.144 10.672C112.624 10.3947 112.997 10.0053 113.264 9.504C113.541 9.00267 113.68 8.432 113.68 7.792C113.68 7.152 113.541 6.58667 113.264 6.096C112.997 5.59467 112.624 5.20533 112.144 4.928C111.664 4.65067 111.131 4.512 110.544 4.512C109.947 4.512 109.408 4.65067 108.928 4.928C108.459 5.20533 108.085 5.59467 107.808 6.096C107.541 6.58667 107.408 7.152 107.408 7.792C107.408 8.432 107.541 9.00267 107.808 9.504C108.085 10.0053 108.459 10.3947 108.928 10.672C109.408 10.9387 109.947 11.072 110.544 11.072ZM120.729 12.08C119.918 12.08 119.187 11.8987 118.537 11.536C117.886 11.1627 117.374 10.6507 117.001 10C116.627 9.34933 116.441 8.61333 116.441 7.792C116.441 6.97067 116.627 6.23467 117.001 5.584C117.374 4.93333 117.886 4.42667 118.537 4.064C119.187 3.70133 119.918 3.52 120.729 3.52C121.539 3.52 122.27 3.70133 122.921 4.064C123.571 4.42667 124.078 4.93333 124.441 5.584C124.814 6.23467 125.001 6.97067 125.001 7.792C125.001 8.61333 124.814 9.34933 124.441 10C124.078 10.6507 123.571 11.1627 122.921 11.536C122.27 11.8987 121.539 12.08 120.729 12.08ZM120.729 11.072C121.326 11.072 121.859 10.9387 122.329 10.672C122.809 10.3947 123.182 10.0053 123.449 9.504C123.715 9.00267 123.849 8.432 123.849 7.792C123.849 7.152 123.715 6.58133 123.449 6.08C123.182 5.57867 122.809 5.19467 122.329 4.928C121.859 4.65067 121.326 4.512 120.729 4.512C120.131 4.512 119.593 4.65067 119.113 4.928C118.643 5.19467 118.27 5.57867 117.993 6.08C117.726 6.58133 117.593 7.152 117.593 7.792C117.593 8.432 117.726 9.00267 117.993 9.504C118.27 10.0053 118.643 10.3947 119.113 10.672C119.593 10.9387 120.131 11.072 120.729 11.072ZM132.789 7.648C133.93 7.91467 134.501 8.60267 134.501 9.712C134.501 10.448 134.229 11.0133 133.685 11.408C133.141 11.8027 132.33 12 131.253 12H127.429V3.584H131.141C132.101 3.584 132.853 3.77067 133.397 4.144C133.941 4.51733 134.213 5.05067 134.213 5.744C134.213 6.20267 134.085 6.59733 133.829 6.928C133.583 7.248 133.237 7.488 132.789 7.648ZM128.533 7.328H131.061C131.711 7.328 132.207 7.20533 132.549 6.96C132.901 6.71467 133.077 6.35733 133.077 5.888C133.077 5.41867 132.901 5.06667 132.549 4.832C132.207 4.59733 131.711 4.48 131.061 4.48H128.533V7.328ZM131.205 11.104C131.93 11.104 132.474 10.9867 132.837 10.752C133.199 10.5173 133.381 10.1493 133.381 9.648C133.381 9.14667 133.215 8.77867 132.885 8.544C132.554 8.29867 132.031 8.176 131.317 8.176H128.533V11.104H131.205Z" fill="black"/>
</svg>
