<svg width="65" height="13" viewBox="0 0 65 13" fill="none" xmlns="http://www.w3.org/2000/svg">
<path d="M4.6 6.864H2.04V12H0.888V0.799999H2.04V5.824H4.6L8.392 0.799999H9.672L5.512 6.24L9.912 12H8.552L4.6 6.864ZM14.4964 3.52C15.595 3.52 16.4377 3.79733 17.0244 4.352C17.611 4.896 17.9044 5.70667 17.9044 6.784V12H16.8164V10.688C16.5604 11.1253 16.1817 11.4667 15.6804 11.712C15.1897 11.9573 14.603 12.08 13.9204 12.08C12.9817 12.08 12.235 11.856 11.6804 11.408C11.1257 10.96 10.8484 10.368 10.8484 9.632C10.8484 8.91733 11.1044 8.34133 11.6164 7.904C12.139 7.46667 12.9657 7.248 14.0964 7.248H16.7684V6.736C16.7684 6.01067 16.5657 5.46133 16.1604 5.088C15.755 4.704 15.163 4.512 14.3844 4.512C13.851 4.512 13.339 4.60267 12.8484 4.784C12.3577 4.95467 11.9364 5.19467 11.5844 5.504L11.0724 4.656C11.499 4.29333 12.011 4.016 12.6084 3.824C13.2057 3.62133 13.835 3.52 14.4964 3.52ZM14.0964 11.184C14.7364 11.184 15.2857 11.04 15.7444 10.752C16.203 10.4533 16.5444 10.0267 16.7684 9.472V8.096H14.1284C12.6884 8.096 11.9684 8.59733 11.9684 9.6C11.9684 10.0907 12.155 10.48 12.5284 10.768C12.9017 11.0453 13.4244 11.184 14.0964 11.184ZM26.8485 4.592H23.6645V12H22.5285V4.592H19.3445V3.584H26.8485V4.592ZM31.387 3.52C32.4857 3.52 33.3283 3.79733 33.915 4.352C34.5017 4.896 34.795 5.70667 34.795 6.784V12H33.707V10.688C33.451 11.1253 33.0723 11.4667 32.571 11.712C32.0803 11.9573 31.4937 12.08 30.811 12.08C29.8723 12.08 29.1257 11.856 28.571 11.408C28.0163 10.96 27.739 10.368 27.739 9.632C27.739 8.91733 27.995 8.34133 28.507 7.904C29.0297 7.46667 29.8563 7.248 30.987 7.248H33.659V6.736C33.659 6.01067 33.4563 5.46133 33.051 5.088C32.6457 4.704 32.0537 4.512 31.275 4.512C30.7417 4.512 30.2297 4.60267 29.739 4.784C29.2483 4.95467 28.827 5.19467 28.475 5.504L27.963 4.656C28.3897 4.29333 28.9017 4.016 29.499 3.824C30.0963 3.62133 30.7257 3.52 31.387 3.52ZM30.987 11.184C31.627 11.184 32.1763 11.04 32.635 10.752C33.0937 10.4533 33.435 10.0267 33.659 9.472V8.096H31.019C29.579 8.096 28.859 8.59733 28.859 9.6C28.859 10.0907 29.0457 10.48 29.419 10.768C29.7923 11.0453 30.315 11.184 30.987 11.184ZM44.6991 3.584V12H43.5631V4.592H39.5311L39.4191 6.672C39.3338 8.42133 39.1311 9.76533 38.8111 10.704C38.4911 11.6427 37.9205 12.112 37.0991 12.112C36.8751 12.112 36.6031 12.0693 36.2831 11.984L36.3631 11.008C36.5551 11.0507 36.6885 11.072 36.7631 11.072C37.2005 11.072 37.5311 10.8693 37.7551 10.464C37.9791 10.0587 38.1285 9.55733 38.2031 8.96C38.2778 8.36267 38.3418 7.57333 38.3951 6.592L38.5391 3.584H44.6991ZM51.4005 12.08C50.5898 12.08 49.8592 11.8987 49.2085 11.536C48.5578 11.1627 48.0458 10.6507 47.6725 10C47.2992 9.34933 47.1125 8.61333 47.1125 7.792C47.1125 6.97067 47.2992 6.23467 47.6725 5.584C48.0458 4.93333 48.5578 4.42667 49.2085 4.064C49.8592 3.70133 50.5898 3.52 51.4005 3.52C52.2112 3.52 52.9418 3.70133 53.5925 4.064C54.2432 4.42667 54.7498 4.93333 55.1125 5.584C55.4858 6.23467 55.6725 6.97067 55.6725 7.792C55.6725 8.61333 55.4858 9.34933 55.1125 10C54.7498 10.6507 54.2432 11.1627 53.5925 11.536C52.9418 11.8987 52.2112 12.08 51.4005 12.08ZM51.4005 11.072C51.9978 11.072 52.5312 10.9387 53.0005 10.672C53.4805 10.3947 53.8538 10.0053 54.1205 9.504C54.3872 9.00267 54.5205 8.432 54.5205 7.792C54.5205 7.152 54.3872 6.58133 54.1205 6.08C53.8538 5.57867 53.4805 5.19467 53.0005 4.928C52.5312 4.65067 51.9978 4.512 51.4005 4.512C50.8032 4.512 50.2645 4.65067 49.7845 4.928C49.3152 5.19467 48.9418 5.57867 48.6645 6.08C48.3978 6.58133 48.2645 7.152 48.2645 7.792C48.2645 8.432 48.3978 9.00267 48.6645 9.504C48.9418 10.0053 49.3152 10.3947 49.7845 10.672C50.2645 10.9387 50.8032 11.072 51.4005 11.072ZM64.0524 4.592H59.2364V12H58.1004V3.584H64.0524V4.592Z" fill="white"/>
</svg>
