<svg width="70" height="16" viewBox="0 0 70 16" fill="none" xmlns="http://www.w3.org/2000/svg">
<path d="M4.6 6.864H2.04V12H0.888V0.799999H2.04V5.824H4.6L8.392 0.799999H9.672L5.512 6.24L9.912 12H8.552L4.6 6.864ZM14.838 12.08C14.0273 12.08 13.2967 11.8987 12.646 11.536C11.9953 11.1627 11.4833 10.6507 11.11 10C10.7367 9.34933 10.55 8.61333 10.55 7.792C10.55 6.97067 10.7367 6.23467 11.11 5.584C11.4833 4.93333 11.9953 4.42667 12.646 4.064C13.2967 3.70133 14.0273 3.52 14.838 3.52C15.6487 3.52 16.3793 3.70133 17.03 4.064C17.6807 4.42667 18.1873 4.93333 18.55 5.584C18.9233 6.23467 19.11 6.97067 19.11 7.792C19.11 8.61333 18.9233 9.34933 18.55 10C18.1873 10.6507 17.6807 11.1627 17.03 11.536C16.3793 11.8987 15.6487 12.08 14.838 12.08ZM14.838 11.072C15.4353 11.072 15.9687 10.9387 16.438 10.672C16.918 10.3947 17.2913 10.0053 17.558 9.504C17.8247 9.00267 17.958 8.432 17.958 7.792C17.958 7.152 17.8247 6.58133 17.558 6.08C17.2913 5.57867 16.918 5.19467 16.438 4.928C15.9687 4.65067 15.4353 4.512 14.838 4.512C14.2407 4.512 13.702 4.65067 13.222 4.928C12.7527 5.19467 12.3793 5.57867 12.102 6.08C11.8353 6.58133 11.702 7.152 11.702 7.792C11.702 8.432 11.8353 9.00267 12.102 9.504C12.3793 10.0053 12.7527 10.3947 13.222 10.672C13.702 10.9387 14.2407 11.072 14.838 11.072ZM25.8739 3.52C26.6632 3.52 27.3779 3.70133 28.0179 4.064C28.6579 4.416 29.1592 4.91733 29.5219 5.568C29.8845 6.21867 30.0659 6.96 30.0659 7.792C30.0659 8.63467 29.8845 9.38133 29.5219 10.032C29.1592 10.6827 28.6579 11.1893 28.0179 11.552C27.3885 11.904 26.6739 12.08 25.8739 12.08C25.1912 12.08 24.5725 11.9413 24.0179 11.664C23.4739 11.376 23.0259 10.96 22.6739 10.416V15.104H21.5379V3.584H22.6259V5.248C22.9672 4.69333 23.4152 4.26667 23.9699 3.968C24.5352 3.66933 25.1699 3.52 25.8739 3.52ZM25.7939 11.072C26.3805 11.072 26.9139 10.9387 27.3939 10.672C27.8739 10.3947 28.2472 10.0053 28.5139 9.504C28.7912 9.00267 28.9299 8.432 28.9299 7.792C28.9299 7.152 28.7912 6.58667 28.5139 6.096C28.2472 5.59467 27.8739 5.20533 27.3939 4.928C26.9139 4.65067 26.3805 4.512 25.7939 4.512C25.1965 4.512 24.6579 4.65067 24.1779 4.928C23.7085 5.20533 23.3352 5.59467 23.0579 6.096C22.7912 6.58667 22.6579 7.152 22.6579 7.792C22.6579 8.432 22.7912 9.00267 23.0579 9.504C23.3352 10.0053 23.7085 10.3947 24.1779 10.672C24.6579 10.9387 25.1965 11.072 25.7939 11.072ZM36.5401 7.616C37.1375 7.75467 37.5961 7.99467 37.9161 8.336C38.2468 8.67733 38.4121 9.09333 38.4121 9.584C38.4121 10.0747 38.2415 10.512 37.9001 10.896C37.5695 11.28 37.1161 11.5787 36.5401 11.792C35.9641 11.9947 35.3295 12.096 34.6361 12.096C34.0281 12.096 33.4308 12.0107 32.8441 11.84C32.2575 11.6587 31.7455 11.3973 31.3081 11.056L31.6921 10.208C32.0761 10.496 32.5241 10.72 33.0361 10.88C33.5481 11.04 34.0655 11.12 34.5881 11.12C35.3668 11.12 36.0015 10.976 36.4921 10.688C36.9935 10.3893 37.2441 9.98933 37.2441 9.488C37.2441 9.04 37.0415 8.69333 36.6361 8.448C36.2308 8.192 35.6761 8.064 34.9721 8.064H33.5321V7.232H34.9081C35.5375 7.232 36.0441 7.11467 36.4281 6.88C36.8121 6.63467 37.0041 6.30933 37.0041 5.904C37.0041 5.456 36.7855 5.104 36.3481 4.848C35.9215 4.592 35.3615 4.464 34.6681 4.464C33.7615 4.464 32.8655 4.69333 31.9801 5.152L31.6601 4.272C32.6628 3.74933 33.7028 3.488 34.7801 3.488C35.4201 3.488 35.9961 3.584 36.5081 3.776C37.0308 3.95733 37.4361 4.21867 37.7241 4.56C38.0228 4.90133 38.1721 5.296 38.1721 5.744C38.1721 6.17067 38.0228 6.54933 37.7241 6.88C37.4361 7.21067 37.0415 7.456 36.5401 7.616ZM40.991 3.584H42.127V10.272L47.743 3.584H48.751V12H47.615V5.312L42.015 12H40.991V3.584ZM52.0066 3.584H53.1426V7.312H58.4386V3.584H59.5746V12H58.4386V8.288H53.1426V12H52.0066V3.584ZM65.6995 3.52C66.7982 3.52 67.6408 3.79733 68.2275 4.352C68.8142 4.896 69.1075 5.70667 69.1075 6.784V12H68.0195V10.688C67.7635 11.1253 67.3848 11.4667 66.8835 11.712C66.3928 11.9573 65.8062 12.08 65.1235 12.08C64.1848 12.08 63.4382 11.856 62.8835 11.408C62.3288 10.96 62.0515 10.368 62.0515 9.632C62.0515 8.91733 62.3075 8.34133 62.8195 7.904C63.3422 7.46667 64.1688 7.248 65.2995 7.248H67.9715V6.736C67.9715 6.01067 67.7688 5.46133 67.3635 5.088C66.9582 4.704 66.3662 4.512 65.5875 4.512C65.0542 4.512 64.5422 4.60267 64.0515 4.784C63.5608 4.95467 63.1395 5.19467 62.7875 5.504L62.2755 4.656C62.7022 4.29333 63.2142 4.016 63.8115 3.824C64.4088 3.62133 65.0382 3.52 65.6995 3.52ZM65.2995 11.184C65.9395 11.184 66.4888 11.04 66.9475 10.752C67.4062 10.4533 67.7475 10.0267 67.9715 9.472V8.096H65.3315C63.8915 8.096 63.1715 8.59733 63.1715 9.6C63.1715 10.0907 63.3582 10.48 63.7315 10.768C64.1048 11.0453 64.6275 11.184 65.2995 11.184Z" fill="white"/>
</svg>
