<svg width="120" height="25" viewBox="0 0 120 25" fill="none" xmlns="http://www.w3.org/2000/svg">
<path d="M9.25048 13.97H4.83048V24H0.478485V0.199998H4.83048V10.162H9.38648L16.2205 0.199998H20.9125L12.7865 11.726L21.2185 24H16.2205L9.25048 13.97ZM44.9515 0.199998L34.6155 19.41C33.7089 21.11 32.6209 22.3907 31.3515 23.252C30.1049 24.0907 28.7449 24.51 27.2715 24.51C26.0929 24.51 24.9255 24.2607 23.7695 23.762L24.8575 20.294C25.7869 20.5887 26.5575 20.736 27.1695 20.736C28.5975 20.736 29.7762 19.9993 30.7055 18.526L31.0795 17.948L21.5935 0.199998H26.3195L33.3575 14.174L40.5995 0.199998H44.9515ZM50.4141 0.199998L56.0241 8.156L61.6341 0.199998H66.8021L58.8121 11.624L67.4481 24H62.2121L56.0241 15.33L49.8701 24H44.7701L53.3721 11.794L45.3141 0.199998H50.4141ZM91.5523 0.199998V24H87.1323V13.8H74.8243V24H70.4043V0.199998H74.8243V10.026H87.1323V0.199998H91.5523ZM98.2625 0.199998H102.614V17.098L115.398 0.199998H119.512V24H115.16V7.136L102.376 24H98.2625V0.199998Z" fill="white"/>
</svg>
