<svg width="348" height="44" viewBox="0 0 348 44" fill="none" xmlns="http://www.w3.org/2000/svg">
<path d="M31.0446 38L30.9966 15.728L19.9566 34.16H17.1726L6.13256 16.016V38H0.228563V4.4H5.36456L18.6606 26.624L31.8126 4.4H36.9006L36.9966 38H31.0446ZM69.7273 25.328C69.7273 25.744 69.6953 26.336 69.6313 27.104H49.5193C49.8713 28.992 50.7833 30.496 52.2553 31.616C53.7593 32.704 55.6153 33.248 57.8233 33.248C60.6393 33.248 62.9593 32.32 64.7833 30.464L67.9993 34.16C66.8473 35.536 65.3913 36.576 63.6313 37.28C61.8713 37.984 59.8873 38.336 57.6793 38.336C54.8633 38.336 52.3833 37.776 50.2393 36.656C48.0953 35.536 46.4313 33.984 45.2473 32C44.0953 29.984 43.5193 27.712 43.5193 25.184C43.5193 22.688 44.0793 20.448 45.1993 18.464C46.3513 16.448 47.9353 14.88 49.9513 13.76C51.9673 12.64 54.2393 12.08 56.7673 12.08C59.2633 12.08 61.4873 12.64 63.4393 13.76C65.4233 14.848 66.9593 16.4 68.0473 18.416C69.1673 20.4 69.7273 22.704 69.7273 25.328ZM56.7673 16.88C54.8473 16.88 53.2153 17.456 51.8713 18.608C50.5593 19.728 49.7593 21.232 49.4713 23.12H64.0153C63.7593 21.264 62.9753 19.76 61.6633 18.608C60.3513 17.456 58.7193 16.88 56.7673 16.88ZM90.1618 13.616C92.5938 13.616 94.7378 14.144 96.5938 15.2C98.4498 16.224 99.8898 17.664 100.914 19.52C101.97 21.376 102.498 23.504 102.498 25.904C102.498 28.368 101.922 30.56 100.77 32.48C99.6178 34.368 98.0018 35.84 95.9218 36.896C93.8418 37.952 91.4738 38.48 88.8178 38.48C84.3698 38.48 80.9298 37.008 78.4978 34.064C76.0658 31.12 74.8498 26.88 74.8498 21.344C74.8498 16.192 75.9538 12.112 78.1618 9.104C80.3698 6.096 83.7458 4.112 88.2898 3.152L100.194 0.607998L101.058 5.984L90.2578 8.192C87.1538 8.832 84.8338 9.92 83.2978 11.456C81.7618 12.992 80.8658 15.152 80.6098 17.936C81.7618 16.56 83.1538 15.504 84.7858 14.768C86.4178 14 88.2098 13.616 90.1618 13.616ZM88.9618 33.632C91.1698 33.632 92.9458 32.928 94.2898 31.52C95.6658 30.08 96.3538 28.256 96.3538 26.048C96.3538 23.84 95.6658 22.064 94.2898 20.72C92.9458 19.376 91.1698 18.704 88.9618 18.704C86.7218 18.704 84.9138 19.376 83.5378 20.72C82.1618 22.064 81.4738 23.84 81.4738 26.048C81.4738 28.288 82.1618 30.112 83.5378 31.52C84.9458 32.928 86.7538 33.632 88.9618 33.632ZM132.305 25.328C132.305 25.744 132.273 26.336 132.209 27.104H112.097C112.449 28.992 113.361 30.496 114.833 31.616C116.337 32.704 118.193 33.248 120.401 33.248C123.217 33.248 125.537 32.32 127.361 30.464L130.577 34.16C129.425 35.536 127.969 36.576 126.209 37.28C124.449 37.984 122.465 38.336 120.257 38.336C117.441 38.336 114.961 37.776 112.817 36.656C110.673 35.536 109.009 33.984 107.825 32C106.673 29.984 106.097 27.712 106.097 25.184C106.097 22.688 106.657 20.448 107.777 18.464C108.929 16.448 110.513 14.88 112.529 13.76C114.545 12.64 116.817 12.08 119.345 12.08C121.841 12.08 124.065 12.64 126.017 13.76C128.001 14.848 129.537 16.4 130.625 18.416C131.745 20.4 132.305 22.704 132.305 25.328ZM119.345 16.88C117.425 16.88 115.793 17.456 114.449 18.608C113.137 19.728 112.337 21.232 112.049 23.12H126.593C126.337 21.264 125.553 19.76 124.241 18.608C122.929 17.456 121.297 16.88 119.345 16.88ZM161.772 12.368V38H155.772V17.456H146.172L145.932 22.544C145.772 25.936 145.452 28.784 144.972 31.088C144.524 33.36 143.74 35.168 142.62 36.512C141.532 37.824 140.028 38.48 138.108 38.48C137.212 38.48 136.108 38.304 134.796 37.952L135.084 32.912C135.532 33.008 135.916 33.056 136.236 33.056C137.452 33.056 138.364 32.576 138.972 31.616C139.58 30.624 139.964 29.456 140.124 28.112C140.316 26.736 140.476 24.784 140.604 22.256L141.036 12.368H161.772ZM182.716 20.816C185.98 20.816 188.476 21.552 190.204 23.024C191.964 24.496 192.844 26.576 192.844 29.264C192.844 32.08 191.884 34.256 189.964 35.792C188.044 37.328 185.34 38.08 181.852 38.048L169.852 38V12.368H175.852V20.768L182.716 20.816ZM181.324 33.632C183.084 33.664 184.428 33.296 185.356 32.528C186.284 31.76 186.748 30.64 186.748 29.168C186.748 27.728 186.3 26.672 185.404 26C184.508 25.328 183.148 24.976 181.324 24.944L175.852 24.896V33.584L181.324 33.632ZM238.744 32.912V43.712H233.128V38H213.352V43.712H207.784V32.912H208.984C210.616 32.848 211.72 31.808 212.296 29.792C212.904 27.744 213.304 24.864 213.496 21.152L213.832 12.368H234.952V32.912H238.744ZM218.968 21.584C218.84 24.528 218.6 26.928 218.248 28.784C217.896 30.64 217.256 32.016 216.328 32.912H228.952V17.456H219.112L218.968 21.584ZM267.334 12.368V38H261.334V17.456H251.734L251.494 22.544C251.334 25.936 251.014 28.784 250.534 31.088C250.086 33.36 249.302 35.168 248.182 36.512C247.094 37.824 245.59 38.48 243.67 38.48C242.774 38.48 241.67 38.304 240.358 37.952L240.646 32.912C241.094 33.008 241.478 33.056 241.798 33.056C243.014 33.056 243.926 32.576 244.534 31.616C245.142 30.624 245.526 29.456 245.686 28.112C245.878 26.736 246.038 24.784 246.166 22.256L246.598 12.368H267.334ZM297.063 12.368V38H291.687V30.272H284.919L279.687 38H273.255L279.303 29.456C277.447 28.816 276.023 27.84 275.031 26.528C274.071 25.184 273.591 23.536 273.591 21.584C273.591 18.64 274.631 16.368 276.711 14.768C278.791 13.168 281.655 12.368 285.303 12.368H297.063ZM285.495 17.408C281.623 17.408 279.687 18.864 279.687 21.776C279.687 24.656 281.559 26.096 285.303 26.096H291.687V17.408H285.495ZM320.223 38.336C319.135 38.336 318.207 37.968 317.439 37.232C316.671 36.464 316.287 35.504 316.287 34.352C316.287 33.168 316.655 32.208 317.391 31.472C318.159 30.736 319.103 30.368 320.223 30.368C321.343 30.368 322.271 30.736 323.007 31.472C323.775 32.208 324.159 33.168 324.159 34.352C324.159 35.504 323.775 36.464 323.007 37.232C322.239 37.968 321.311 38.336 320.223 38.336ZM331.942 38.336C330.854 38.336 329.926 37.968 329.158 37.232C328.39 36.464 328.006 35.504 328.006 34.352C328.006 33.168 328.374 32.208 329.11 31.472C329.878 30.736 330.822 30.368 331.942 30.368C333.062 30.368 333.99 30.736 334.726 31.472C335.494 32.208 335.878 33.168 335.878 34.352C335.878 35.504 335.494 36.464 334.726 37.232C333.958 37.968 333.03 38.336 331.942 38.336ZM343.661 38.336C342.573 38.336 341.645 37.968 340.877 37.232C340.109 36.464 339.725 35.504 339.725 34.352C339.725 33.168 340.093 32.208 340.829 31.472C341.597 30.736 342.541 30.368 343.661 30.368C344.781 30.368 345.709 30.736 346.445 31.472C347.213 32.208 347.597 33.168 347.597 34.352C347.597 35.504 347.213 36.464 346.445 37.232C345.677 37.968 344.749 38.336 343.661 38.336Z" fill="black"/>
</svg>
