<svg width="413" height="24" viewBox="0 0 413 24" fill="none" xmlns="http://www.w3.org/2000/svg">
<path d="M14.872 2.2V19H13.12V11.248H2.608V19H0.832V2.2H2.608V9.688H13.12V2.2H14.872ZM24.4789 6.28C26.1269 6.28 27.3909 6.696 28.2709 7.528C29.1509 8.344 29.5909 9.56 29.5909 11.176V19H27.9589V17.032C27.5749 17.688 27.0069 18.2 26.2549 18.568C25.5189 18.936 24.6389 19.12 23.6149 19.12C22.2069 19.12 21.0869 18.784 20.2549 18.112C19.4229 17.44 19.0069 16.552 19.0069 15.448C19.0069 14.376 19.3909 13.512 20.1589 12.856C20.9429 12.2 22.1829 11.872 23.8789 11.872H27.8869V11.104C27.8869 10.016 27.5829 9.192 26.9749 8.632C26.3669 8.056 25.4789 7.768 24.3109 7.768C23.5109 7.768 22.7429 7.904 22.0069 8.176C21.2709 8.432 20.6389 8.792 20.1109 9.256L19.3429 7.984C19.9829 7.44 20.7509 7.024 21.6469 6.736C22.5429 6.432 23.4869 6.28 24.4789 6.28ZM23.8789 17.776C24.8389 17.776 25.6629 17.56 26.3509 17.128C27.0389 16.68 27.5509 16.04 27.8869 15.208V13.144H23.9269C21.7669 13.144 20.6869 13.896 20.6869 15.4C20.6869 16.136 20.9669 16.72 21.5269 17.152C22.0869 17.568 22.8709 17.776 23.8789 17.776ZM51.5511 6.376V19H34.1271V6.376H35.8311V17.512H42.0231V6.376H43.7271V17.512H49.8471V6.376H51.5511ZM60.7602 6.28C62.4082 6.28 63.6722 6.696 64.5522 7.528C65.4322 8.344 65.8722 9.56 65.8722 11.176V19H64.2402V17.032C63.8562 17.688 63.2882 18.2 62.5362 18.568C61.8002 18.936 60.9202 19.12 59.8962 19.12C58.4882 19.12 57.3682 18.784 56.5362 18.112C55.7042 17.44 55.2882 16.552 55.2882 15.448C55.2882 14.376 55.6722 13.512 56.4402 12.856C57.2242 12.2 58.4642 11.872 60.1602 11.872H64.1682V11.104C64.1682 10.016 63.8642 9.192 63.2562 8.632C62.6482 8.056 61.7602 7.768 60.5922 7.768C59.7922 7.768 59.0242 7.904 58.2882 8.176C57.5522 8.432 56.9202 8.792 56.3922 9.256L55.6242 7.984C56.2642 7.44 57.0322 7.024 57.9282 6.736C58.8242 6.432 59.7682 6.28 60.7602 6.28ZM60.1602 17.776C61.1202 17.776 61.9442 17.56 62.6322 17.128C63.3202 16.68 63.8322 16.04 64.1682 15.208V13.144H60.2082C58.0482 13.144 56.9682 13.896 56.9682 15.4C56.9682 16.136 57.2482 16.72 57.8082 17.152C58.3682 17.568 59.1522 17.776 60.1602 17.776ZM90.8016 6.376V19H89.2416V9.016L84.1296 17.464H83.3616L78.2496 8.992V19H76.6896V6.376H78.4176L83.7696 15.472L89.2176 6.376H90.8016ZM106.691 13.216H96.1306C96.2266 14.528 96.7306 15.592 97.6426 16.408C98.5546 17.208 99.7066 17.608 101.099 17.608C101.883 17.608 102.603 17.472 103.259 17.2C103.915 16.912 104.483 16.496 104.963 15.952L105.923 17.056C105.363 17.728 104.659 18.24 103.811 18.592C102.979 18.944 102.059 19.12 101.051 19.12C99.7546 19.12 98.6026 18.848 97.5946 18.304C96.6026 17.744 95.8266 16.976 95.2666 16C94.7066 15.024 94.4266 13.92 94.4266 12.688C94.4266 11.456 94.6906 10.352 95.2186 9.376C95.7626 8.4 96.4986 7.64 97.4266 7.096C98.3706 6.552 99.4266 6.28 100.595 6.28C101.763 6.28 102.811 6.552 103.739 7.096C104.667 7.64 105.395 8.4 105.923 9.376C106.451 10.336 106.715 11.44 106.715 12.688L106.691 13.216ZM100.595 7.744C99.3786 7.744 98.3546 8.136 97.5226 8.92C96.7066 9.688 96.2426 10.696 96.1306 11.944H105.083C104.971 10.696 104.499 9.688 103.667 8.92C102.851 8.136 101.827 7.744 100.595 7.744ZM116.607 6.688C117.775 6.688 118.815 6.952 119.727 7.48C120.655 7.992 121.375 8.72 121.887 9.664C122.399 10.592 122.655 11.656 122.655 12.856C122.655 14.088 122.383 15.184 121.839 16.144C121.311 17.088 120.567 17.824 119.607 18.352C118.647 18.88 117.543 19.144 116.295 19.144C114.199 19.144 112.575 18.408 111.423 16.936C110.271 15.464 109.695 13.432 109.695 10.84C109.695 8.136 110.207 6.064 111.23 4.624C112.271 3.184 113.887 2.208 116.079 1.696L121.743 0.399999L122.031 1.96L116.703 3.184C114.895 3.584 113.567 4.296 112.719 5.32C111.871 6.328 111.407 7.824 111.327 9.808C111.839 8.832 112.551 8.072 113.463 7.528C114.375 6.968 115.423 6.688 116.607 6.688ZM116.343 17.728C117.223 17.728 118.007 17.528 118.695 17.128C119.399 16.712 119.943 16.136 120.327 15.4C120.727 14.664 120.927 13.832 120.927 12.904C120.927 11.976 120.735 11.16 120.351 10.456C119.967 9.752 119.423 9.208 118.719 8.824C118.031 8.424 117.239 8.224 116.343 8.224C115.447 8.224 114.647 8.424 113.943 8.824C113.255 9.208 112.711 9.752 112.311 10.456C111.927 11.16 111.735 11.976 111.735 12.904C111.735 13.832 111.927 14.664 112.311 15.4C112.711 16.136 113.263 16.712 113.967 17.128C114.671 17.528 115.463 17.728 116.343 17.728ZM137.347 13.216H126.787C126.883 14.528 127.387 15.592 128.299 16.408C129.211 17.208 130.363 17.608 131.755 17.608C132.539 17.608 133.259 17.472 133.915 17.2C134.571 16.912 135.139 16.496 135.619 15.952L136.579 17.056C136.019 17.728 135.315 18.24 134.467 18.592C133.635 18.944 132.715 19.12 131.707 19.12C130.411 19.12 129.259 18.848 128.251 18.304C127.259 17.744 126.483 16.976 125.923 16C125.363 15.024 125.083 13.92 125.083 12.688C125.083 11.456 125.347 10.352 125.875 9.376C126.419 8.4 127.155 7.64 128.083 7.096C129.027 6.552 130.083 6.28 131.251 6.28C132.419 6.28 133.467 6.552 134.395 7.096C135.323 7.64 136.051 8.4 136.579 9.376C137.107 10.336 137.371 11.44 137.371 12.688L137.347 13.216ZM131.251 7.744C130.035 7.744 129.011 8.136 128.179 8.92C127.363 9.688 126.899 10.696 126.787 11.944H135.739C135.627 10.696 135.155 9.688 134.323 8.92C133.507 8.136 132.483 7.744 131.251 7.744ZM151.205 6.376V19H149.501V7.888H143.453L143.285 11.008C143.157 13.632 142.853 15.648 142.373 17.056C141.893 18.464 141.037 19.168 139.805 19.168C139.469 19.168 139.061 19.104 138.581 18.976L138.701 17.512C138.989 17.576 139.189 17.608 139.301 17.608C139.957 17.608 140.453 17.304 140.789 16.696C141.125 16.088 141.349 15.336 141.461 14.44C141.573 13.544 141.669 12.36 141.749 10.888L141.965 6.376H151.205ZM161.473 10.84C163.057 10.856 164.257 11.208 165.073 11.896C165.905 12.584 166.321 13.576 166.321 14.872C166.321 16.216 165.873 17.248 164.977 17.968C164.097 18.688 162.817 19.04 161.137 19.024L156.049 19V6.376H157.753V10.792L161.473 10.84ZM161.041 17.728C162.209 17.744 163.089 17.512 163.681 17.032C164.289 16.536 164.593 15.816 164.593 14.872C164.593 13.944 164.297 13.256 163.705 12.808C163.113 12.36 162.225 12.128 161.041 12.112L157.753 12.064V17.68L161.041 17.728ZM173.43 11.872H197.43V13.096H173.43V11.872ZM214.175 12.472C215.887 12.872 216.743 13.904 216.743 15.568C216.743 16.672 216.335 17.52 215.519 18.112C214.703 18.704 213.487 19 211.871 19H206.135V6.376H211.703C213.143 6.376 214.271 6.656 215.087 7.216C215.903 7.776 216.311 8.576 216.311 9.616C216.311 10.304 216.119 10.896 215.735 11.392C215.367 11.872 214.847 12.232 214.175 12.472ZM207.791 11.992H211.583C212.559 11.992 213.303 11.808 213.815 11.44C214.343 11.072 214.607 10.536 214.607 9.832C214.607 9.128 214.343 8.6 213.815 8.248C213.303 7.896 212.559 7.72 211.583 7.72H207.791V11.992ZM211.799 17.656C212.887 17.656 213.703 17.48 214.247 17.128C214.791 16.776 215.063 16.224 215.063 15.472C215.063 14.72 214.815 14.168 214.319 13.816C213.823 13.448 213.039 13.264 211.967 13.264H207.791V17.656H211.799ZM225.081 6.28C226.729 6.28 227.993 6.696 228.873 7.528C229.753 8.344 230.193 9.56 230.193 11.176V19H228.561V17.032C228.177 17.688 227.609 18.2 226.857 18.568C226.121 18.936 225.241 19.12 224.217 19.12C222.809 19.12 221.689 18.784 220.857 18.112C220.025 17.44 219.609 16.552 219.609 15.448C219.609 14.376 219.993 13.512 220.761 12.856C221.545 12.2 222.785 11.872 224.48 11.872H228.489V11.104C228.489 10.016 228.185 9.192 227.577 8.632C226.969 8.056 226.081 7.768 224.913 7.768C224.113 7.768 223.345 7.904 222.609 8.176C221.873 8.432 221.241 8.792 220.713 9.256L219.945 7.984C220.585 7.44 221.353 7.024 222.249 6.736C223.145 6.432 224.089 6.28 225.081 6.28ZM224.48 17.776C225.441 17.776 226.265 17.56 226.953 17.128C227.641 16.68 228.153 16.04 228.489 15.208V13.144H224.529C222.369 13.144 221.289 13.896 221.289 15.4C221.289 16.136 221.569 16.72 222.129 17.152C222.689 17.568 223.473 17.776 224.48 17.776ZM252.153 6.376V19H234.729V6.376H236.433V17.512H242.625V6.376H244.329V17.512H250.449V6.376H252.153ZM268.058 13.216H257.498C257.594 14.528 258.098 15.592 259.01 16.408C259.922 17.208 261.074 17.608 262.466 17.608C263.25 17.608 263.97 17.472 264.626 17.2C265.282 16.912 265.85 16.496 266.33 15.952L267.29 17.056C266.73 17.728 266.026 18.24 265.178 18.592C264.346 18.944 263.426 19.12 262.418 19.12C261.122 19.12 259.97 18.848 258.962 18.304C257.97 17.744 257.194 16.976 256.634 16C256.074 15.024 255.794 13.92 255.794 12.688C255.794 11.456 256.058 10.352 256.586 9.376C257.13 8.4 257.866 7.64 258.794 7.096C259.738 6.552 260.794 6.28 261.962 6.28C263.13 6.28 264.178 6.552 265.106 7.096C266.034 7.64 266.762 8.4 267.29 9.376C267.818 10.336 268.082 11.44 268.082 12.688L268.058 13.216ZM261.962 7.744C260.746 7.744 259.722 8.136 258.89 8.92C258.074 9.688 257.61 10.696 257.498 11.944H266.45C266.338 10.696 265.866 9.688 265.034 8.92C264.218 8.136 263.194 7.744 261.962 7.744ZM283.343 19.12C282.127 19.12 281.031 18.848 280.055 18.304C279.079 17.744 278.311 16.976 277.751 16C277.191 15.024 276.911 13.92 276.911 12.688C276.911 11.456 277.191 10.352 277.751 9.376C278.311 8.4 279.079 7.64 280.055 7.096C281.031 6.552 282.127 6.28 283.343 6.28C284.559 6.28 285.655 6.552 286.631 7.096C287.607 7.64 288.367 8.4 288.911 9.376C289.471 10.352 289.751 11.456 289.751 12.688C289.751 13.92 289.471 15.024 288.911 16C288.367 16.976 287.607 17.744 286.631 18.304C285.655 18.848 284.559 19.12 283.343 19.12ZM283.343 17.608C284.239 17.608 285.039 17.408 285.743 17.008C286.463 16.592 287.023 16.008 287.423 15.256C287.823 14.504 288.023 13.648 288.023 12.688C288.023 11.728 287.823 10.872 287.423 10.12C287.023 9.368 286.463 8.792 285.743 8.392C285.039 7.976 284.239 7.768 283.343 7.768C282.447 7.768 281.639 7.976 280.919 8.392C280.215 8.792 279.655 9.368 279.239 10.12C278.839 10.872 278.639 11.728 278.639 12.688C278.639 13.648 278.839 14.504 279.239 15.256C279.655 16.008 280.215 16.592 280.919 17.008C281.639 17.408 282.447 17.608 283.343 17.608ZM301.804 7.888H297.028V19H295.324V7.888H290.548V6.376H301.804V7.888ZM310.772 6.28C311.956 6.28 313.028 6.552 313.988 7.096C314.948 7.624 315.7 8.376 316.244 9.352C316.788 10.328 317.06 11.44 317.06 12.688C317.06 13.952 316.788 15.072 316.244 16.048C315.7 17.024 314.948 17.784 313.988 18.328C313.044 18.856 311.972 19.12 310.772 19.12C309.748 19.12 308.82 18.912 307.988 18.496C307.172 18.064 306.5 17.44 305.972 16.624V23.656H304.268V6.376H305.9V8.872C306.412 8.04 307.084 7.4 307.916 6.952C308.764 6.504 309.716 6.28 310.772 6.28ZM310.652 17.608C311.532 17.608 312.332 17.408 313.052 17.008C313.772 16.592 314.332 16.008 314.732 15.256C315.148 14.504 315.356 13.648 315.356 12.688C315.356 11.728 315.148 10.88 314.732 10.144C314.332 9.392 313.772 8.808 313.052 8.392C312.332 7.976 311.532 7.768 310.652 7.768C309.756 7.768 308.948 7.976 308.228 8.392C307.524 8.808 306.964 9.392 306.548 10.144C306.148 10.88 305.948 11.728 305.948 12.688C305.948 13.648 306.148 14.504 306.548 15.256C306.964 16.008 307.524 16.592 308.228 17.008C308.948 17.408 309.756 17.608 310.652 17.608ZM324.995 6.28C326.643 6.28 327.907 6.696 328.787 7.528C329.667 8.344 330.107 9.56 330.107 11.176V19H328.475V17.032C328.091 17.688 327.523 18.2 326.771 18.568C326.035 18.936 325.155 19.12 324.131 19.12C322.723 19.12 321.603 18.784 320.771 18.112C319.939 17.44 319.523 16.552 319.523 15.448C319.523 14.376 319.907 13.512 320.675 12.856C321.459 12.2 322.699 11.872 324.395 11.872H328.403V11.104C328.403 10.016 328.099 9.192 327.491 8.632C326.883 8.056 325.995 7.768 324.827 7.768C324.027 7.768 323.259 7.904 322.523 8.176C321.787 8.432 321.155 8.792 320.627 9.256L319.859 7.984C320.499 7.44 321.267 7.024 322.163 6.736C323.059 6.432 324.003 6.28 324.995 6.28ZM324.395 17.776C325.355 17.776 326.179 17.56 326.867 17.128C327.555 16.68 328.067 16.04 328.403 15.208V13.144H324.443C322.283 13.144 321.203 13.896 321.203 15.4C321.203 16.136 321.483 16.72 322.043 17.152C322.603 17.568 323.387 17.776 324.395 17.776ZM345.707 13.384H342.971V19H341.267V13.384H338.531L334.667 19H332.627L337.163 12.496L332.987 6.376H334.835L338.531 11.92H341.267V6.376H342.971V11.92H345.707L349.427 6.376H351.275L347.099 12.52L351.635 19H349.595L345.707 13.384ZM365.066 13.216H354.506C354.602 14.528 355.106 15.592 356.018 16.408C356.93 17.208 358.082 17.608 359.474 17.608C360.258 17.608 360.978 17.472 361.634 17.2C362.29 16.912 362.858 16.496 363.338 15.952L364.298 17.056C363.738 17.728 363.034 18.24 362.186 18.592C361.354 18.944 360.434 19.12 359.426 19.12C358.13 19.12 356.978 18.848 355.97 18.304C354.978 17.744 354.202 16.976 353.642 16C353.082 15.024 352.802 13.92 352.802 12.688C352.802 11.456 353.066 10.352 353.594 9.376C354.138 8.4 354.874 7.64 355.802 7.096C356.746 6.552 357.802 6.28 358.97 6.28C360.138 6.28 361.186 6.552 362.114 7.096C363.042 7.64 363.77 8.4 364.298 9.376C364.826 10.336 365.09 11.44 365.09 12.688L365.066 13.216ZM358.97 7.744C357.754 7.744 356.73 8.136 355.898 8.92C355.082 9.688 354.618 10.696 354.506 11.944H363.458C363.346 10.696 362.874 9.688 362.042 8.92C361.226 8.136 360.202 7.744 358.97 7.744ZM368.862 6.376H370.566V11.968H378.51V6.376H380.214V19H378.51V13.432H370.566V19H368.862V6.376ZM385.057 6.376H386.761V16.408L395.185 6.376H396.697V19H394.993V8.968L386.593 19H385.057V6.376ZM412.62 13.216H402.06C402.156 14.528 402.66 15.592 403.572 16.408C404.484 17.208 405.636 17.608 407.028 17.608C407.812 17.608 408.532 17.472 409.188 17.2C409.844 16.912 410.412 16.496 410.892 15.952L411.852 17.056C411.292 17.728 410.588 18.24 409.74 18.592C408.908 18.944 407.988 19.12 406.98 19.12C405.684 19.12 404.532 18.848 403.524 18.304C402.532 17.744 401.756 16.976 401.196 16C400.636 15.024 400.356 13.92 400.356 12.688C400.356 11.456 400.62 10.352 401.148 9.376C401.692 8.4 402.428 7.64 403.356 7.096C404.3 6.552 405.356 6.28 406.524 6.28C407.692 6.28 408.74 6.552 409.668 7.096C410.596 7.64 411.324 8.4 411.852 9.376C412.38 10.336 412.644 11.44 412.644 12.688L412.62 13.216ZM406.524 7.744C405.308 7.744 404.284 8.136 403.452 8.92C402.636 9.688 402.172 10.696 402.06 11.944H411.012C410.9 10.696 410.428 9.688 409.596 8.92C408.78 8.136 407.756 7.744 406.524 7.744Z" fill="white"/>
</svg>
