<svg width="158" height="31" viewBox="0 0 158 31" fill="none" xmlns="http://www.w3.org/2000/svg">
<path d="M12.8099 25.34C10.3846 25.34 8.19725 24.8187 6.24791 23.776C4.29858 22.7107 2.76858 21.2487 1.65791 19.39C0.547247 17.5087 -0.00808588 15.412 -0.00808588 13.1C-0.00808588 10.788 0.547247 8.70267 1.65791 6.844C2.76858 4.96267 4.29858 3.50067 6.24791 2.458C8.19725 1.39267 10.3846 0.859999 12.8099 0.859999C15.2352 0.859999 17.4226 1.39267 19.3719 2.458C21.3212 3.50067 22.8512 4.95133 23.9619 6.81C25.0726 8.66867 25.6279 10.7653 25.6279 13.1C25.6279 15.4347 25.0726 17.5313 23.9619 19.39C22.8512 21.2487 21.3212 22.7107 19.3719 23.776C17.4226 24.8187 15.2352 25.34 12.8099 25.34ZM12.8099 21.464C14.3966 21.464 15.8246 21.1127 17.0939 20.41C18.3632 19.6847 19.3606 18.6873 20.0859 17.418C20.8112 16.126 21.1739 14.6867 21.1739 13.1C21.1739 11.5133 20.8112 10.0853 20.0859 8.816C19.3606 7.524 18.3632 6.52667 17.0939 5.824C15.8246 5.09867 14.3966 4.736 12.8099 4.736C11.2232 4.736 9.79525 5.09867 8.52591 5.824C7.25658 6.52667 6.25925 7.524 5.53391 8.816C4.80858 10.0853 4.44591 11.5133 4.44591 13.1C4.44591 14.6867 4.80858 16.126 5.53391 17.418C6.25925 18.6873 7.25658 19.6847 8.52591 20.41C9.79525 21.1127 11.2232 21.464 12.8099 21.464ZM47.4546 4.94H39.5666V25H35.1806V4.94H27.3266V1.2H47.4546V4.94ZM73.6009 21.26V30.066H69.5209V25H51.2629V30.066H47.1489L47.1829 21.26H48.2029C49.6989 21.192 50.7415 20.0927 51.3309 17.962C51.9429 15.8087 52.3169 12.7373 52.4529 8.748L52.7249 1.2H70.1669V21.26H73.6009ZM56.3289 9.156C56.2155 12.2387 55.9662 14.8113 55.5809 16.874C55.1955 18.914 54.5835 20.376 53.7449 21.26H65.8149V4.94H56.4989L56.3289 9.156ZM88.7447 9.258C91.6007 9.258 93.788 9.904 95.3067 11.196C96.848 12.4653 97.6187 14.358 97.6187 16.874C97.6187 19.5033 96.78 21.5207 95.1027 22.926C93.4253 24.3087 91.068 25 88.0307 25H77.7967V1.2H82.1487V9.258H88.7447ZM87.8267 21.6C89.5493 21.6 90.8753 21.2033 91.8047 20.41C92.734 19.6167 93.1987 18.4607 93.1987 16.942C93.1987 14.0633 91.408 12.624 87.8267 12.624H82.1487V21.6H87.8267ZM101.053 1.2H105.405V25H101.053V1.2ZM114.849 1.2L120.459 9.156L126.069 1.2H131.237L123.247 12.624L131.883 25H126.647L120.459 16.33L114.305 25H109.205L117.807 12.794L109.749 1.2H114.849ZM150.216 19.492H138.316L135.97 25H131.414L142.124 1.2H146.476L157.22 25H152.596L150.216 19.492ZM148.754 16.024L144.266 5.62L139.812 16.024H148.754Z" fill="white"/>
</svg>
