<svg width="153" height="26" viewBox="0 0 153 26" fill="none" xmlns="http://www.w3.org/2000/svg">
<path d="M10.5508 1.2C12.6134 1.2 14.4041 1.54 15.9228 2.22C17.4641 2.9 18.6428 3.87467 19.4588 5.144C20.2748 6.41333 20.6828 7.92067 20.6828 9.666C20.6828 11.3887 20.2748 12.896 19.4588 14.188C18.6428 15.4573 17.4641 16.432 15.9228 17.112C14.4041 17.792 12.6134 18.132 10.5508 18.132H5.17876V25H0.758758V1.2H10.5508ZM10.3468 14.392C12.2734 14.392 13.7354 13.984 14.7328 13.168C15.7301 12.352 16.2288 11.1847 16.2288 9.666C16.2288 8.14733 15.7301 6.98 14.7328 6.164C13.7354 5.348 12.2734 4.94 10.3468 4.94H5.17876V14.392H10.3468ZM39.4449 19.492H27.5449L25.1989 25H20.6429L31.3529 1.2H35.7049L46.4489 25H41.8249L39.4449 19.492ZM37.9829 16.024L33.4949 5.62L29.0409 16.024H37.9829ZM50.1326 1.2H68.6626V4.838H54.4846V10.686H61.5226C64.3786 10.686 66.5433 11.2867 68.0166 12.488C69.5126 13.6667 70.2606 15.378 70.2606 17.622C70.2606 19.9793 69.4446 21.804 67.8126 23.096C66.1806 24.3653 63.8573 25 60.8426 25H50.1326V1.2ZM60.6046 21.6C62.3046 21.6 63.5966 21.2713 64.4806 20.614C65.3646 19.9567 65.8066 19.0047 65.8066 17.758C65.8066 15.31 64.0726 14.086 60.6046 14.086H54.4846V21.6H60.6046ZM86.1166 25.34C83.6912 25.34 81.5039 24.8187 79.5546 23.776C77.6052 22.7107 76.0752 21.2487 74.9646 19.39C73.8539 17.5087 73.2986 15.412 73.2986 13.1C73.2986 10.788 73.8539 8.70267 74.9646 6.844C76.0752 4.96267 77.6052 3.50067 79.5546 2.458C81.5039 1.39267 83.6912 0.859999 86.1166 0.859999C88.5419 0.859999 90.7292 1.39267 92.6786 2.458C94.6279 3.50067 96.1579 4.95133 97.2686 6.81C98.3792 8.66867 98.9346 10.7653 98.9346 13.1C98.9346 15.4347 98.3792 17.5313 97.2686 19.39C96.1579 21.2487 94.6279 22.7107 92.6786 23.776C90.7292 24.8187 88.5419 25.34 86.1166 25.34ZM86.1166 21.464C87.7032 21.464 89.1312 21.1127 90.4006 20.41C91.6699 19.6847 92.6672 18.6873 93.3926 17.418C94.1179 16.126 94.4806 14.6867 94.4806 13.1C94.4806 11.5133 94.1179 10.0853 93.3926 8.816C92.6672 7.524 91.6699 6.52667 90.4006 5.824C89.1312 5.09867 87.7032 4.736 86.1166 4.736C84.5299 4.736 83.1019 5.09867 81.8326 5.824C80.5632 6.52667 79.5659 7.524 78.8406 8.816C78.1152 10.0853 77.7526 11.5133 77.7526 13.1C77.7526 14.6867 78.1152 16.126 78.8406 17.418C79.5659 18.6873 80.5632 19.6847 81.8326 20.41C83.1019 21.1127 84.5299 21.464 86.1166 21.464ZM120.761 4.94H112.873V25H108.487V4.94H100.633V1.2H120.761V4.94ZM135.555 9.258C138.411 9.258 140.599 9.904 142.117 11.196C143.659 12.4653 144.429 14.358 144.429 16.874C144.429 19.5033 143.591 21.5207 141.913 22.926C140.236 24.3087 137.879 25 134.841 25H124.607V1.2H128.959V9.258H135.555ZM134.637 21.6C136.36 21.6 137.686 21.2033 138.615 20.41C139.545 19.6167 140.009 18.4607 140.009 16.942C140.009 14.0633 138.219 12.624 134.637 12.624H128.959V21.6H134.637ZM147.863 1.2H152.215V25H147.863V1.2Z" fill="white"/>
</svg>
